<svg width="25" height="25" viewBox="0 0 25 25" fill="none" xmlns="http://www.w3.org/2000/svg">
<path d="M15.5 14.0166C12.83 14.0166 7.5 15.3466 7.5 18.0166V20.0166H23.5V18.0166C23.5 15.3466 18.17 14.0166 15.5 14.0166ZM6.5 10.0166V7.0166H4.5V10.0166H1.5V12.0166H4.5V15.0166H6.5V12.0166H9.5V10.0166M15.5 12.0166C16.5609 12.0166 17.5783 11.5952 18.3284 10.845C19.0786 10.0949 19.5 9.07747 19.5 8.0166C19.5 6.95574 19.0786 5.93832 18.3284 5.18817C17.5783 4.43803 16.5609 4.0166 15.5 4.0166C14.4391 4.0166 13.4217 4.43803 12.6716 5.18817C11.9214 5.93832 11.5 6.95574 11.5 8.0166C11.5 9.07747 11.9214 10.0949 12.6716 10.845C13.4217 11.5952 14.4391 12.0166 15.5 12.0166Z" fill="white"/>
</svg>
