<svg width="20" height="20" viewBox="0 0 20 20" fill="none" xmlns="http://www.w3.org/2000/svg">
<path d="M7.00165 15H3.60605C2.34762 15 1.71841 15 1.58603 14.9023C1.43729 14.7925 1.40095 14.7277 1.38485 14.5436C1.37051 14.3797 1.75616 13.7486 2.52745 12.4866C3.3238 11.1835 4 9.28622 4 6.6C4 5.11479 4.63214 3.69041 5.75736 2.6402C6.88258 1.59 8.4087 1 10 1C11.5913 1 13.1174 1.59 14.2426 2.6402C15.3679 3.69041 16 5.11479 16 6.6C16 9.28622 16.6762 11.1835 17.4725 12.4866C18.2438 13.7486 18.6295 14.3797 18.6152 14.5436C18.599 14.7277 18.5627 14.7925 18.414 14.9023C18.2816 15 17.6524 15 16.3939 15H13M7.00165 15L7 16C7 17.6569 8.34315 19 10 19C11.6569 19 13 17.6569 13 16V15M7.00165 15H13" stroke="#302F2F" stroke-width="2" stroke-linecap="round" stroke-linejoin="round"/>
</svg>
