<svg width="12" height="8" viewBox="0 0 12 8" fill="none" xmlns="http://www.w3.org/2000/svg">
<path d="M0.749994 0.829102C0.638814 0.829199 0.530156 0.862243 0.437745 0.924057C0.345333 0.985872 0.273312 1.07369 0.230779 1.17641C0.188245 1.27913 0.177106 1.39215 0.19877 1.5012C0.220433 1.61025 0.273926 1.71044 0.352494 1.7891L5.60249 7.0391C5.70796 7.14444 5.85093 7.20361 5.99999 7.20361C6.14906 7.20361 6.29202 7.14444 6.39749 7.0391L11.6475 1.7891C11.7261 1.71044 11.7796 1.61025 11.8012 1.5012C11.8229 1.39215 11.8117 1.27913 11.7692 1.17641C11.7267 1.07369 11.6547 0.985872 11.5622 0.924057C11.4698 0.862243 11.3612 0.829199 11.25 0.829102H0.749994Z" fill="black"/>
</svg>
