<svg width="25" height="25" viewBox="0 0 25 25" fill="none" xmlns="http://www.w3.org/2000/svg">
<path d="M19.6562 15.0799V19.5199C19.6559 20.1481 19.4062 20.7505 18.962 21.1947C18.5178 21.639 17.9154 21.8886 17.2872 21.8889H5.68615C5.3739 21.8888 5.06476 21.8269 4.77648 21.707C4.48821 21.587 4.22648 21.4112 4.00634 21.1898C3.7862 20.9684 3.61199 20.7056 3.49372 20.4166C3.37544 20.1276 3.31544 19.8181 3.31715 19.5059V7.91789C3.31529 7.60614 3.37533 7.29712 3.49377 7.00874C3.61222 6.72036 3.78672 6.45835 4.00716 6.23791C4.22761 6.01746 4.48962 5.84296 4.778 5.72451C5.06638 5.60607 5.3754 5.54604 5.68715 5.54789H10.1262" stroke="white" stroke-width="1.5" stroke-linecap="round" stroke-linejoin="round"/>
<path d="M19.6562 9.63437L15.5712 5.54837M7.40116 16.4424V14.2774C7.40316 13.9204 7.54516 13.5774 7.79616 13.3244L17.3282 3.79237C17.4546 3.66448 17.6052 3.56294 17.7712 3.49365C17.9372 3.42435 18.1153 3.38867 18.2952 3.38867C18.475 3.38867 18.6531 3.42435 18.8191 3.49365C18.9851 3.56294 19.1357 3.66448 19.2622 3.79237L21.4132 5.94337C21.541 6.06985 21.6426 6.22044 21.7119 6.38643C21.7812 6.55242 21.8169 6.7305 21.8169 6.91037C21.8169 7.09024 21.7812 7.26833 21.7119 7.43431C21.6426 7.6003 21.541 7.75089 21.4132 7.87737L11.8812 17.4094C11.6277 17.6611 11.2854 17.803 10.9282 17.8044H8.76315C8.58422 17.8046 8.40699 17.7696 8.24163 17.7012C8.07626 17.6329 7.92601 17.5326 7.79949 17.406C7.67296 17.2795 7.57265 17.1293 7.50429 16.9639C7.43594 16.7985 7.40089 16.6213 7.40116 16.4424Z" stroke="white" stroke-width="1.5" stroke-linecap="round" stroke-linejoin="round"/>
</svg>
