<svg width="18" height="19" viewBox="0 0 18 19" fill="none" xmlns="http://www.w3.org/2000/svg">
<g clip-path="url(#clip0_21_4575)">
<path d="M2 2.5166C1.46957 2.5166 0.960859 2.72732 0.585786 3.10239C0.210714 3.47746 0 3.98617 0 4.5166L0 13.5166C0 14.047 0.210714 14.5557 0.585786 14.9308C0.960859 15.3059 1.46957 15.5166 2 15.5166H6V2.5166H2Z" fill="#009A49"/>
<path d="M6 2.5166H12V15.5166H6V2.5166Z" fill="#EEEEEE"/>
<path d="M16 2.5166H12V15.5166H16C16.5304 15.5166 17.0391 15.3059 17.4142 14.9308C17.7893 14.5557 18 14.047 18 13.5166V4.5166C18 3.98617 17.7893 3.47746 17.4142 3.10239C17.0391 2.72732 16.5304 2.5166 16 2.5166Z" fill="#009A49"/>
</g>
<defs>
<clipPath id="clip0_21_4575">
<rect width="18" height="18" fill="white" transform="translate(0 0.0166016)"/>
</clipPath>
</defs>
</svg>
