<svg width="24" height="25" viewBox="0 0 24 25" fill="none" xmlns="http://www.w3.org/2000/svg">
<path d="M2 6.6416C2 5.8128 2.32924 5.01794 2.91529 4.43189C3.50134 3.84584 4.2962 3.5166 5.125 3.5166H18.875C19.7038 3.5166 20.4987 3.84584 21.0847 4.43189C21.6708 5.01794 22 5.8128 22 6.6416V14.2736C21.62 13.9598 21.1996 13.6984 20.75 13.4966V6.6416C20.75 6.14432 20.5525 5.66741 20.2008 5.31578C19.8492 4.96415 19.3723 4.7666 18.875 4.7666H5.125C4.62772 4.7666 4.15081 4.96415 3.79917 5.31578C3.44754 5.66741 3.25 6.14432 3.25 6.6416V14.3916C3.25 14.8889 3.44754 15.3658 3.79917 15.7174C4.15081 16.0691 4.62772 16.2666 5.125 16.2666H11.952L13.202 17.5166H5.125C4.2962 17.5166 3.50134 17.1874 2.91529 16.6013C2.32924 16.0153 2 15.2204 2 14.3916V6.6416ZM16.625 12.5166C16.4745 12.5166 16.336 12.4631 16.228 12.3741C16.1939 12.1664 16.1191 11.9674 16.008 11.7886C16.0324 11.6426 16.1078 11.51 16.2208 11.4145C16.3338 11.3189 16.477 11.2665 16.625 11.2666H18.875C19.0408 11.2666 19.1997 11.3324 19.3169 11.4497C19.4342 11.5669 19.5 11.7258 19.5 11.8916C19.5 12.0574 19.4342 12.2163 19.3169 12.3335C19.1997 12.4508 19.0408 12.5166 18.875 12.5166H16.625ZM13.384 10.5166L14.006 11.1386C13.8074 11.2199 13.6271 11.3403 13.476 11.4926L13.034 11.9346L12.5 11.4006L11.567 12.3336C11.509 12.3916 11.44 12.4377 11.3642 12.4691C11.2884 12.5005 11.2071 12.5167 11.125 12.5167C11.0429 12.5167 10.9616 12.5005 10.8858 12.4691C10.81 12.4377 10.741 12.3916 10.683 12.3336C10.625 12.2756 10.5789 12.2066 10.5475 12.1308C10.5161 12.055 10.4999 11.9737 10.4999 11.8916C10.4999 11.8095 10.5161 11.7282 10.5475 11.6524C10.5789 11.5766 10.625 11.5076 10.683 11.4496L11.616 10.5166L10.683 9.5836C10.5658 9.46638 10.4999 9.30738 10.4999 9.1416C10.4999 8.97582 10.5658 8.81683 10.683 8.6996C10.8002 8.58238 10.9592 8.51652 11.125 8.51652C11.2908 8.51652 11.4498 8.58238 11.567 8.6996L12.5 9.6326L13.433 8.6996C13.5502 8.58238 13.7092 8.51652 13.875 8.51652C14.0408 8.51652 14.1998 8.58238 14.317 8.6996C14.4342 8.81683 14.5001 8.97582 14.5001 9.1416C14.5001 9.30738 14.4342 9.46638 14.317 9.5836L13.384 10.5166ZM5.183 8.6996C5.24104 8.64155 5.30995 8.5955 5.38578 8.56408C5.46162 8.53266 5.54291 8.51649 5.625 8.51649C5.70709 8.51649 5.78838 8.53266 5.86422 8.56408C5.94005 8.5955 6.00896 8.64155 6.067 8.6996L7 9.6326L7.933 8.6996C8.05023 8.58238 8.20922 8.51652 8.375 8.51652C8.54078 8.51652 8.69977 8.58238 8.817 8.6996C8.93423 8.81683 9.00008 8.97582 9.00008 9.1416C9.00008 9.30738 8.93423 9.46638 8.817 9.5836L7.884 10.5166L8.817 11.4496C8.87504 11.5076 8.92109 11.5766 8.9525 11.6524C8.98391 11.7282 9.00008 11.8095 9.00008 11.8916C9.00008 11.9737 8.98391 12.055 8.9525 12.1308C8.92109 12.2066 8.87504 12.2756 8.817 12.3336C8.75896 12.3916 8.69005 12.4377 8.61421 12.4691C8.53837 12.5005 8.45709 12.5167 8.375 12.5167C8.29291 12.5167 8.21163 12.5005 8.13579 12.4691C8.05995 12.4377 7.99104 12.3916 7.933 12.3336L7 11.4006L6.067 12.3336C5.94977 12.4508 5.79078 12.5167 5.625 12.5167C5.45922 12.5167 5.30023 12.4508 5.183 12.3336C5.06577 12.2164 4.99992 12.0574 4.99992 11.8916C4.99992 11.7258 5.06577 11.5668 5.183 11.4496L6.116 10.5166L5.183 9.5836C5.12495 9.52556 5.07889 9.45666 5.04747 9.38082C5.01605 9.30498 4.99988 9.22369 4.99988 9.1416C4.99988 9.05951 5.01605 8.97823 5.04747 8.90239C5.07889 8.82655 5.12495 8.75764 5.183 8.6996ZM15.067 13.0836C15.1842 12.9664 15.2501 12.8074 15.2501 12.6416C15.2501 12.4758 15.1842 12.3168 15.067 12.1996C14.9498 12.0824 14.7908 12.0165 14.625 12.0165C14.4592 12.0165 14.3002 12.0824 14.183 12.1996L12.183 14.1996C12.1249 14.2576 12.0789 14.3265 12.0475 14.4024C12.0161 14.4782 11.9999 14.5595 11.9999 14.6416C11.9999 14.7237 12.0161 14.805 12.0475 14.8808C12.0789 14.9567 12.1249 15.0256 12.183 15.0836L14.183 17.0836C14.3002 17.2008 14.4592 17.2667 14.625 17.2667C14.7908 17.2667 14.9498 17.2008 15.067 17.0836C15.1842 16.9664 15.2501 16.8074 15.2501 16.6416C15.2501 16.4758 15.1842 16.3168 15.067 16.1996L14.134 15.2666H18.5C19.1203 15.2667 19.7276 15.4443 20.2502 15.7784C20.7728 16.1125 21.1888 16.5891 21.4492 17.1521C21.7097 17.715 21.8036 18.3408 21.7198 18.9554C21.6361 19.5699 21.3782 20.1477 20.9767 20.6205C20.5752 21.0933 20.0467 21.4412 19.4538 21.6234C18.8609 21.8055 18.2282 21.8141 17.6305 21.6483C17.0328 21.4824 16.4951 21.149 16.0808 20.6873C15.6665 20.2257 15.393 19.6552 15.2925 19.0431C15.2793 18.9621 15.2503 18.8844 15.2071 18.8146C15.1639 18.7448 15.1073 18.6842 15.0407 18.6363C14.9741 18.5883 14.8987 18.5539 14.8188 18.5351C14.7389 18.5163 14.656 18.5134 14.575 18.5266C14.494 18.5398 14.4163 18.5688 14.3465 18.612C14.2767 18.6552 14.2161 18.7118 14.1682 18.7784C14.1202 18.845 14.0858 18.9204 14.067 19.0003C14.0482 19.0802 14.0453 19.1631 14.0585 19.2441C14.4065 21.3836 16.262 23.0166 18.5 23.0166C19.6935 23.0166 20.8381 22.5425 21.682 21.6986C22.5259 20.8547 23 19.7101 23 18.5166C23 17.3231 22.5259 16.1785 21.682 15.3346C20.8381 14.4907 19.6935 14.0166 18.5 14.0166H14.134L15.067 13.0836Z" fill="white"/>
</svg>
