<svg width="21" height="22" viewBox="0 0 21 22" fill="none" xmlns="http://www.w3.org/2000/svg">
<path d="M3 0.779419C1.34531 0.779419 0 2.12473 0 3.77942V18.7794C0 20.4341 1.34531 21.7794 3 21.7794H18C19.6547 21.7794 21 20.4341 21 18.7794V3.77942C21 2.12473 19.6547 0.779419 18 0.779419H3ZM16.9266 4.71692L12.0609 10.2763L17.7844 17.8419H13.3031L9.79688 13.2529L5.77969 17.8419H3.55313L8.75625 11.8935L3.26719 4.71692H7.86094L11.0344 8.91223L14.7 4.71692H16.9266ZM15.1547 16.5107L7.19062 5.97786H5.86406L13.9172 16.5107H15.15H15.1547Z" fill="#5A5A5A"/>
</svg>
