<svg width="20" height="21" viewBox="0 0 20 21" fill="none" xmlns="http://www.w3.org/2000/svg">
<g clip-path="url(#clip0_103_1697)">
<path d="M12.2514 17.5201L12.2605 17.5265C13.0476 18.0276 13.982 18.2452 14.9095 18.1434C15.837 18.0415 16.7019 17.6263 17.3615 16.9663L17.9344 16.3934C18.0614 16.2665 18.1621 16.1158 18.2308 15.95C18.2995 15.7842 18.3349 15.6064 18.3349 15.4269C18.3349 15.2474 18.2995 15.0697 18.2308 14.9038C18.1621 14.738 18.0614 14.5874 17.9344 14.4605L15.5178 12.0457C15.3909 11.9188 15.2403 11.818 15.0745 11.7493C14.9086 11.6806 14.7309 11.6452 14.5514 11.6452C14.3719 11.6452 14.1941 11.6806 14.0283 11.7493C13.8625 11.818 13.7118 11.9188 13.5849 12.0457C13.3287 12.3019 12.9813 12.4458 12.619 12.4458C12.2567 12.4458 11.9092 12.3019 11.653 12.0457L7.78901 8.18087C7.53287 7.92464 7.38897 7.57718 7.38897 7.21488C7.38897 6.85258 7.53287 6.50511 7.78901 6.24889C7.91598 6.12201 8.0167 5.97134 8.08542 5.80552C8.15414 5.63969 8.18951 5.46195 8.18951 5.28245C8.18951 5.10295 8.15414 4.9252 8.08542 4.75938C8.0167 4.59355 7.91598 4.44289 7.78901 4.316L5.37336 1.90126C5.11714 1.64512 4.76967 1.50122 4.40737 1.50122C4.04507 1.50122 3.69761 1.64512 3.44138 1.90126L2.86753 2.4742C2.20768 3.13384 1.79262 3.99886 1.69093 4.92632C1.58924 5.85379 1.80701 6.78819 2.30825 7.57513L2.31371 7.58424C4.9609 11.5008 8.33434 14.8737 12.2514 17.5201V17.5201Z" stroke="#757575" stroke-width="1.4" stroke-linecap="round" stroke-linejoin="round"/>
</g>
<defs>
<clipPath id="clip0_103_1697">
<rect width="20" height="20" fill="white" transform="translate(0 0.13501)"/>
</clipPath>
</defs>
</svg>
