<svg width="19" height="21" viewBox="0 0 19 21" fill="none" xmlns="http://www.w3.org/2000/svg">
<path d="M13.8566 19.6397V14.8747C13.8564 14.6657 13.8149 14.4588 13.7346 14.2659C13.6544 14.0729 13.5368 13.8977 13.3888 13.7502C13.2407 13.6028 13.0651 13.4859 12.8718 13.4064C12.6786 13.3268 12.4716 13.2861 12.2626 13.2867H6.95061C6.74164 13.2861 6.53462 13.3268 6.34138 13.4064C6.14814 13.4859 5.97248 13.6028 5.82443 13.7502C5.67639 13.8977 5.55887 14.0729 5.4786 14.2659C5.39833 14.4588 5.35688 14.6657 5.35661 14.8747V19.6397M13.8566 1.92466V4.28666C13.8564 4.49563 13.8149 4.7025 13.7346 4.89544C13.6544 5.08837 13.5368 5.2636 13.3888 5.41108C13.2407 5.55857 13.0651 5.67542 12.8718 5.75497C12.6786 5.83451 12.4716 5.87518 12.2626 5.87466H6.95061C6.74164 5.87518 6.53462 5.83451 6.34138 5.75497C6.14814 5.67542 5.97248 5.55857 5.82443 5.41108C5.67639 5.2636 5.55887 5.08837 5.4786 4.89544C5.39833 4.7025 5.35688 4.49563 5.35661 4.28666V1.63966M13.8566 1.92466C13.4419 1.73684 12.9919 1.63968 12.5366 1.63966H5.35661M13.8566 1.92466C14.2006 2.08066 14.5176 2.29866 14.7906 2.56966L17.1726 4.94466C17.4684 5.23898 17.7031 5.5888 17.8634 5.97405C18.0237 6.3593 18.1063 6.7724 18.1066 7.18966V16.4617C18.1064 16.8797 18.0237 17.2936 17.8633 17.6796C17.7029 18.0656 17.468 18.4163 17.172 18.7114C16.876 19.0066 16.5247 19.2405 16.1382 19.3998C15.7517 19.5591 15.3376 19.6406 14.9196 19.6397H4.29461C3.87659 19.6407 3.46246 19.5593 3.07592 19.4002C2.68937 19.241 2.338 19.0072 2.0419 18.7122C1.7458 18.4171 1.51079 18.0665 1.3503 17.6805C1.18981 17.2945 1.10701 16.8807 1.10661 16.4627V4.81566C1.10714 4.39772 1.19004 3.98398 1.35059 3.5981C1.51113 3.21223 1.74617 2.86178 2.04225 2.56681C2.33834 2.27184 2.68967 2.03813 3.07615 1.87904C3.46263 1.71995 3.87667 1.63861 4.29461 1.63966H5.35661" stroke="white" stroke-width="1.5" stroke-linecap="round" stroke-linejoin="round"/>
</svg>
