<svg width="18" height="19" viewBox="0 0 18 19" fill="none" xmlns="http://www.w3.org/2000/svg">
<path fill-rule="evenodd" clip-rule="evenodd" d="M6.49073 0.634265C4.75117 1.141 3.20472 2.16026 2.05314 3.55908C0.901563 4.95791 0.198318 6.67134 0.0351562 8.47584H4.14944C4.38927 5.72987 5.18543 3.06143 6.48944 0.632979L6.49073 0.634265ZM4.14944 10.083H0.0351562C0.197979 11.8875 0.900923 13.6011 2.05228 15.0002C3.20363 16.3993 4.74993 17.4188 6.48944 17.9258C5.18543 15.4974 4.38927 12.8289 4.14944 10.083ZM8.55173 18.2691C6.9929 15.7968 6.03719 12.9927 5.76173 10.083H12.2353C11.9598 12.9927 11.0041 15.7968 9.4453 18.2691C9.14763 18.2839 8.8494 18.2839 8.55173 18.2691ZM11.5089 17.9245C13.2482 17.4176 14.7944 16.3982 15.9457 14.9994C17.097 13.6006 17.8001 11.8873 17.9632 10.083H13.8489C13.609 12.8289 12.8129 15.4974 11.5089 17.9258V17.9245ZM13.8489 8.47584H17.9632C17.8003 6.67127 17.0974 4.95767 15.946 3.55862C14.7947 2.15956 13.2484 1.14001 11.5089 0.632979C12.8129 3.06143 13.609 5.72987 13.8489 8.47584ZM8.55173 0.289693C8.84983 0.274855 9.14848 0.274855 9.44659 0.289693C11.005 2.7621 11.9602 5.56626 12.2353 8.47584H5.76301C6.04201 5.54826 6.99987 2.74155 8.55173 0.289693Z" fill="black"/>
</svg>
