<svg width="64" height="65" viewBox="0 0 64 65" fill="none" xmlns="http://www.w3.org/2000/svg">
<path d="M15 25.2794H49V53.2794H15V25.2794Z" fill="#0A5078"/>
<path d="M32 49.2794C37.2467 49.2794 41.5 45.0261 41.5 39.7794C41.5 34.5327 37.2467 30.2794 32 30.2794C26.7533 30.2794 22.5 34.5327 22.5 39.7794C22.5 45.0261 26.7533 49.2794 32 49.2794Z" fill="#00325A"/>
<path d="M15 25.2794H49V26.2794H15V25.2794Z" fill="#00325A"/>
<path d="M29.5 25.2794H34.5V53.2794H29.5V25.2794Z" fill="#F0F0F0"/>
<path d="M10 21.2794V24.2794C10 24.8314 10.448 25.2794 11 25.2794H53C53.552 25.2794 54 24.8314 54 24.2794V21.2794H10Z" fill="#F0F0F0"/>
<path d="M54 21.2794V24.2794C54 24.8294 53.55 25.2794 53 25.2794H11C10.45 25.2794 10 24.8294 10 24.2794V21.2794H54Z" fill="#F0F0F0"/>
<path d="M6 57.2794V59.2794C6 59.8314 6.448 60.2794 7 60.2794H57C57.552 60.2794 58 59.8314 58 59.2794V57.2794C58 56.7274 57.552 56.2794 57 56.2794H7C6.448 56.2794 6 56.7274 6 57.2794Z" fill="#00A0C8"/>
<path d="M9 54.2794V56.2794H55V54.2794C55 53.7274 54.552 53.2794 54 53.2794H10C9.448 53.2794 9 53.7274 9 54.2794Z" fill="#F0F0F0"/>
<path d="M10 21.2794H54V22.2794H10V21.2794Z" fill="#D2D2D2"/>
<path d="M34.5 30.6194V48.9394C33.71 49.1594 32.87 49.2794 32 49.2794C31.13 49.2794 30.29 49.1594 29.5 48.9394V30.6194C30.29 30.3994 31.13 30.2794 32 30.2794C32.87 30.2794 33.71 30.3994 34.5 30.6194Z" fill="#D2D2D2"/>
<path d="M32 48.2794C37.2467 48.2794 41.5 44.0261 41.5 38.7794C41.5 33.5327 37.2467 29.2794 32 29.2794C26.7533 29.2794 22.5 33.5327 22.5 38.7794C22.5 44.0261 26.7533 48.2794 32 48.2794Z" fill="#FAB400"/>
<path d="M32 46.7794C36.4183 46.7794 40 43.1977 40 38.7794C40 34.3611 36.4183 30.7794 32 30.7794C27.5817 30.7794 24 34.3611 24 38.7794C24 43.1977 27.5817 46.7794 32 46.7794Z" fill="#DC9600"/>
<path d="M32 46.7794C36.4183 46.7794 40 43.1977 40 38.7794C40 34.3611 36.4183 30.7794 32 30.7794C27.5817 30.7794 24 34.3611 24 38.7794C24 43.1977 27.5817 46.7794 32 46.7794Z" fill="#DC9600"/>
<path d="M34 38.7794C34.552 38.7794 35 38.3314 35 37.7794V37.6334C35 36.3594 34.155 35.2904 33 34.9244V34.2794C33 33.7274 32.552 33.2794 32 33.2794C31.448 33.2794 31 33.7274 31 34.2794V34.9244C29.845 35.2904 29 36.3594 29 37.6334C29 38.7204 29.604 39.6994 30.578 40.1864L32.528 41.1604C32.819 41.3064 33 41.5994 33 41.9254C33 42.3964 32.617 42.7794 32.146 42.7794H31.854C31.383 42.7794 31 42.3964 31 41.9254V41.7794C31 41.2274 30.552 40.7794 30 40.7794C29.448 40.7794 29 41.2274 29 41.7794V41.9254C29 43.1994 29.845 44.2684 31 44.6344V45.2794C31 45.8314 31.448 46.2794 32 46.2794C32.552 46.2794 33 45.8314 33 45.2794V44.6344C34.155 44.2684 35 43.1994 35 41.9254C35 40.8384 34.396 39.8594 33.422 39.3724L31.472 38.3984C31.181 38.2524 31 37.9594 31 37.6334C31 37.1624 31.383 36.7794 31.854 36.7794H32.146C32.617 36.7794 33 37.1624 33 37.6334V37.7794C33 38.3314 33.448 38.7794 34 38.7794Z" fill="#BE7800"/>
<path d="M40 38.7794C40 38.9494 39.99 39.1194 39.98 39.2794C39.72 35.0994 36.24 31.7794 32 31.7794C27.76 31.7794 24.28 35.0994 24.02 39.2794C24.01 39.1194 24 38.9494 24 38.7794C24 34.3694 27.59 30.7794 32 30.7794C36.41 30.7794 40 34.3694 40 38.7794Z" fill="#BE7800"/>
<path d="M32.146 43.7794H31.854C30.28 43.7794 29 42.4994 29 40.9254V40.7794C29 40.2274 29.448 39.7794 30 39.7794C30.552 39.7794 31 40.2274 31 40.7794V40.9254C31 41.3964 31.383 41.7794 31.854 41.7794H32.146C32.617 41.7794 33 41.3964 33 40.9254C33 40.5994 32.819 40.3074 32.528 40.1614L30.578 39.1864C29.604 38.6994 29 37.7204 29 36.6334C29 35.0594 30.28 33.7794 31.854 33.7794H32.146C33.72 33.7794 35 35.0594 35 36.6334V36.7794C35 37.3314 34.552 37.7794 34 37.7794C33.448 37.7794 33 37.3314 33 36.7794V36.6334C33 36.1624 32.617 35.7794 32.146 35.7794H31.854C31.383 35.7794 31 36.1624 31 36.6334C31 36.9594 31.181 37.2524 31.473 37.3984L33.423 38.3734C34.396 38.8594 35 39.8374 35 40.9254C35 42.4994 33.72 43.7794 32.146 43.7794Z" fill="#F0F0F0"/>
<path d="M32 35.7794C31.448 35.7794 31 35.3314 31 34.7794V33.2794C31 32.7274 31.448 32.2794 32 32.2794C32.552 32.2794 33 32.7274 33 33.2794V34.7794C33 35.3314 32.552 35.7794 32 35.7794Z" fill="#F0F0F0"/>
<path d="M32 45.2794C31.448 45.2794 31 44.8314 31 44.2794V42.7794C31 42.2274 31.448 41.7794 32 41.7794C32.552 41.7794 33 42.2274 33 42.7794V44.2794C33 44.8314 32.552 45.2794 32 45.2794Z" fill="#F0F0F0"/>
<path d="M13 25.2794H18V53.2794H13V25.2794Z" fill="#F0F0F0"/>
<path d="M46 25.2794H51V53.2794H46V25.2794Z" fill="#F0F0F0"/>
<path d="M35.5 25.2794V27.2794C35.5 27.8294 35.05 28.2794 34.5 28.2794H29.5C28.95 28.2794 28.5 27.8294 28.5 27.2794V25.2794H35.5Z" fill="#00A0C8"/>
<path d="M12 26.2794V27.2794C12 27.8314 12.448 28.2794 13 28.2794H18C18.552 28.2794 19 27.8314 19 27.2794V26.2794H12Z" fill="#00A0C8"/>
<path d="M12 25.2794H19V26.2794H12V25.2794Z" fill="#0082AA"/>
<path d="M19 52.2794V51.2794C19 50.7274 18.552 50.2794 18 50.2794H13C12.448 50.2794 12 50.7274 12 51.2794V52.2794H19Z" fill="#00A0C8"/>
<path d="M12 52.2794H19V53.2794H12V52.2794Z" fill="#0082AA"/>
<path d="M59 38.7794H57C56.447 38.7794 56 39.2274 56 39.7794C56 40.3314 56.447 40.7794 57 40.7794H59C59.553 40.7794 60 40.3314 60 39.7794C60 39.2274 59.553 38.7794 59 38.7794Z" fill="#00A0C8"/>
<path d="M56.2932 33.0724L54.8792 34.4864C54.4882 34.8774 54.4882 35.5094 54.8792 35.9004C55.2702 36.2914 55.9022 36.2914 56.2932 35.9004L57.7072 34.4864C58.0982 34.0954 58.0982 33.4634 57.7072 33.0724C57.3162 32.6814 56.6842 32.6814 56.2932 33.0724Z" fill="#FAB400"/>
<path d="M54.8792 43.6584C54.4882 44.0494 54.4882 44.6814 54.8792 45.0724L56.2932 46.4864C56.6842 46.8774 57.3162 46.8774 57.7072 46.4864C58.0982 46.0954 58.0982 45.4634 57.7072 45.0724L56.2932 43.6584C55.9022 43.2674 55.2702 43.2674 54.8792 43.6584Z" fill="#C80A50"/>
<path d="M5 38.7794H7C7.553 38.7794 8 39.2274 8 39.7794C8 40.3314 7.553 40.7794 7 40.7794H5C4.447 40.7794 4 40.3314 4 39.7794C4 39.2274 4.447 38.7794 5 38.7794Z" fill="#00A0C8"/>
<path d="M7.70725 33.0724L9.12125 34.4864C9.51225 34.8774 9.51225 35.5094 9.12125 35.9004C8.73025 36.2914 8.09825 36.2914 7.70725 35.9004L6.29325 34.4864C5.90225 34.0954 5.90225 33.4634 6.29325 33.0724C6.68425 32.6814 7.31625 32.6814 7.70725 33.0724Z" fill="#FAB400"/>
<path d="M9.12125 43.6584C9.51225 44.0494 9.51225 44.6814 9.12125 45.0724L7.70725 46.4864C7.31625 46.8774 6.68425 46.8774 6.29325 46.4864C5.90225 46.0954 5.90225 45.4634 6.29325 45.0724L7.70725 43.6584C8.09825 43.2674 8.73025 43.2674 9.12125 43.6584Z" fill="#C80A50"/>
<path d="M56.9596 21.2794H7.02959C6.00959 21.2794 5.63959 19.9494 6.50959 19.4194L31.4836 4.37042C31.8016 4.17942 32.1986 4.17942 32.5156 4.37042L57.4796 19.4194C58.3496 19.9494 57.9796 21.2794 56.9596 21.2794Z" fill="#00A0C8"/>
<path d="M32 19.2794C34.4853 19.2794 36.5 17.2647 36.5 14.7794C36.5 12.2941 34.4853 10.2794 32 10.2794C29.5147 10.2794 27.5 12.2941 27.5 14.7794C27.5 17.2647 29.5147 19.2794 32 19.2794Z" fill="#0082AA"/>
<path d="M32 18.2794C34.4853 18.2794 36.5 16.2647 36.5 13.7794C36.5 11.2941 34.4853 9.27942 32 9.27942C29.5147 9.27942 27.5 11.2941 27.5 13.7794C27.5 16.2647 29.5147 18.2794 32 18.2794Z" fill="#F0F0F0"/>
<path d="M32 16.7794C33.6569 16.7794 35 15.4363 35 13.7794C35 12.1226 33.6569 10.7794 32 10.7794C30.3431 10.7794 29 12.1226 29 13.7794C29 15.4363 30.3431 16.7794 32 16.7794Z" fill="#0A5078"/>
<path d="M35 13.7794C35 13.9494 34.99 14.1194 34.95 14.2794C34.72 12.8594 33.49 11.7794 32 11.7794C30.51 11.7794 29.28 12.8594 29.05 14.2794C29.01 14.1194 29 13.9494 29 13.7794C29 12.1194 30.34 10.7794 32 10.7794C33.66 10.7794 35 12.1194 35 13.7794Z" fill="#00325A"/>
<path d="M15.5 48.2794C14.948 48.2794 14.5 47.8314 14.5 47.2794V31.2794C14.5 30.7274 14.948 30.2794 15.5 30.2794C16.052 30.2794 16.5 30.7274 16.5 31.2794V47.2794C16.5 47.8314 16.052 48.2794 15.5 48.2794Z" fill="#D2D2D2"/>
<path d="M48.5 48.2794C47.948 48.2794 47.5 47.8314 47.5 47.2794V31.2794C47.5 30.7274 47.948 30.2794 48.5 30.2794C49.052 30.2794 49.5 30.7274 49.5 31.2794V47.2794C49.5 47.8314 49.052 48.2794 48.5 48.2794Z" fill="#D2D2D2"/>
<path d="M28.5 25.2794H35.5V26.2794H28.5V25.2794Z" fill="#0082AA"/>
<path d="M52 25.2794V27.2794C52 27.8294 51.55 28.2794 51 28.2794H46C45.45 28.2794 45 27.8294 45 27.2794V25.2794H52Z" fill="#00A0C8"/>
<path d="M45 25.2794H52V26.2794H45V25.2794Z" fill="#0082AA"/>
<path d="M35.5 52.2794V51.2794C35.5 50.7274 35.052 50.2794 34.5 50.2794H29.5C28.948 50.2794 28.5 50.7274 28.5 51.2794V52.2794H35.5Z" fill="#00A0C8"/>
<path d="M28.5 52.2794H35.5V53.2794H28.5V52.2794Z" fill="#0082AA"/>
<path d="M52 52.2794V51.2794C52 50.7274 51.552 50.2794 51 50.2794H46C45.448 50.2794 45 50.7274 45 51.2794V52.2794H52Z" fill="#00A0C8"/>
<path d="M45 52.2794H52V53.2794H45V52.2794Z" fill="#0082AA"/>
</svg>
