<svg width="62" height="63" viewBox="0 0 62 63" fill="none" xmlns="http://www.w3.org/2000/svg">
<g clip-path="url(#clip0_35_5627)">
<path d="M62 31.2794C62 48.4003 48.1208 62.2794 31 62.2794C26.4945 62.2794 22.2133 61.3182 18.3507 59.5898C14.2352 57.7481 14.5561 46.4959 11.625 43.1466C8.88852 40.0198 2.80877 44.8776 1.49975 40.832C0.526152 37.823 0 34.6125 0 31.2794C0 14.1586 13.8792 0.279419 31 0.279419C48.1208 0.279419 62 14.1586 62 31.2794Z" fill="url(#paint0_radial_35_5627)"/>
<path d="M18.0951 44.9094C16.9657 44.9094 15.9605 44.1066 15.7449 42.9562C14.9266 38.5925 10.0337 34.8393 8.21732 33.7613C7.08037 33.0865 6.70583 31.6179 7.38056 30.4809C8.05517 29.3435 9.5238 28.9692 10.661 29.6439C11.0037 29.8474 19.0701 34.7099 20.4508 42.0737C20.6945 43.3734 19.8386 44.6243 18.539 44.8679C18.3898 44.8958 18.2413 44.9094 18.0951 44.9094Z" fill="#C9A978"/>
<path d="M25.7368 41.2261C24.9424 41.2261 24.1654 40.8309 23.7101 40.1093C21.2702 36.2435 18.566 33.916 15.89 33.3789C13.4763 32.894 11.7641 33.9974 11.748 34.009C10.949 34.5691 9.88991 34.5883 9.0712 34.0577C8.25236 33.5267 7.83774 32.552 8.02325 31.5939C8.3582 29.8641 9.88664 26.5264 13.4921 24.9888C18.2517 22.9594 24.8879 24.6584 33.2178 30.0378C34.3284 30.755 34.6473 32.2369 33.9299 33.3476C33.2126 34.4579 31.7305 34.7772 30.6202 34.0597C24.4149 30.052 20.4044 28.9838 17.9127 28.9556C21.5371 30.0494 24.8446 32.9361 27.7591 37.554C28.4647 38.672 28.1304 40.1504 27.0123 40.856C26.6156 41.1064 26.1736 41.2261 25.7368 41.2261Z" fill="#D4B17E"/>
<path d="M33.2279 40.353L32.7563 38.6103L44.5521 35.4179L43.5724 31.7988L31.7767 34.9911L31.4866 33.9187L43.2823 30.7266L42.6654 28.4479L28.457 32.293L30.9965 41.6758C31.2958 42.7821 32.4454 43.4417 33.5513 43.1425L45.7491 39.8412L45.0236 37.1603L33.2279 40.353Z" fill="#ECF0F1"/>
<path d="M43.2819 30.7266L49.0457 29.1665L49.3359 30.2389L43.572 31.7988L44.5517 35.4179L50.3153 33.8581L50.7869 35.6006L45.0232 37.1606L45.7487 39.8415L58.0805 36.5039C59.1863 36.2047 59.8462 35.055 59.547 33.9493L57.0075 24.5662L42.665 28.448L43.2819 30.7266ZM50.7882 28.6948L55.8817 27.3166L56.1718 28.3888L51.0784 29.7673L50.7882 28.6948Z" fill="#BDC3C7"/>
<path d="M53.1474 18.2742L40.8154 21.6118L41.5411 24.2924L55.8834 20.4108L55.7021 19.7405C55.4029 18.6348 54.2531 17.975 53.1474 18.2742Z" fill="#BDC3C7"/>
<path d="M40.8153 21.6118L28.6177 24.9129C27.5117 25.2121 26.8519 26.3618 27.1512 27.4676L27.3326 28.1376L41.5412 24.2924L40.8153 21.6118Z" fill="#ECF0F1"/>
<path d="M27.3184 28.1368L41.5228 24.295L42.6464 28.4492L28.4419 32.2911L27.3184 28.1368Z" fill="#33495F"/>
<path d="M57.0244 24.5617L42.6859 28.4398L41.5624 24.2857L55.9009 20.4076L57.0244 24.5617Z" fill="#2B3E51"/>
<path d="M49.0449 29.1481L49.3349 30.2203L43.5726 31.7788L43.2827 30.7066L49.0449 29.1481Z" fill="#7F8C8D"/>
<path d="M43.5879 31.8003L31.7955 34.9897L31.5056 33.9178L43.298 30.7284L43.5879 31.8003Z" fill="#95A5A6"/>
<path d="M50.7686 28.6959L55.8605 27.3187L56.1505 28.3909L51.0585 29.7681L50.7686 28.6959Z" fill="#7F8C8D"/>
<path d="M45.041 37.1626L33.2485 40.352L32.7774 38.61L44.5698 35.4205L45.041 37.1626Z" fill="#95A5A6"/>
<path d="M50.3125 33.8374L50.7836 35.5794L45.0217 37.1378L44.5506 35.3958L50.3125 33.8374Z" fill="#7F8C8D"/>
<path d="M26.7327 44.0186C23.4724 45.3706 21.3284 46.5439 18.3538 45.8139C15.3793 45.084 12.5686 36.8367 16.5585 30.6524C20.5483 24.4681 28.1291 25.0665 29.725 24.6675C31.3209 24.2685 35.5767 25.5993 35.5767 21.6094C35.5767 17.6196 19.7503 19.2811 15.5608 20.4781C11.3714 21.6752 4.96508 31.1583 4.96508 31.1583L1.58887 41.0982C4.34411 49.3552 10.4785 56.0656 18.3516 59.5886C18.3522 59.5853 18.3532 59.5824 18.3538 59.5792C19.1518 55.3898 26.8656 51.6666 29.459 49.6719C32.0524 47.6768 40.6973 46.6119 38.9017 42.8217C37.1063 39.0312 30.8791 42.299 26.7327 44.0186Z" fill="#E5BF88"/>
<path d="M29.7891 20.0268C29.7891 21.3594 30.8692 22.4396 32.2019 22.4396C33.4825 22.4396 34.5272 21.4412 34.6068 20.1805C33.6115 19.5908 31.9323 19.2775 29.9538 19.1555C29.8489 19.426 29.7891 19.7192 29.7891 20.0268Z" fill="#ECF0F1"/>
<path d="M35.898 46.2824C37.0983 46.2824 38.0714 45.3094 38.0714 44.1091C38.0714 42.9087 37.0983 41.9357 35.898 41.9357C34.6977 41.9357 33.7246 42.9087 33.7246 44.1091C33.7246 45.3094 34.6977 46.2824 35.898 46.2824Z" fill="#ECF0F1"/>
</g>
<defs>
<radialGradient id="paint0_radial_35_5627" cx="0" cy="0" r="1" gradientUnits="userSpaceOnUse" gradientTransform="translate(31 31.2794) scale(31)">
<stop offset="0.0051" stop-color="#E87E04"/>
<stop offset="1" stop-color="#D55400"/>
</radialGradient>
<clipPath id="clip0_35_5627">
<rect width="62" height="62" fill="white" transform="translate(0 0.279419)"/>
</clipPath>
</defs>
</svg>
