<svg width="24" height="25" viewBox="0 0 24 25" fill="none" xmlns="http://www.w3.org/2000/svg">
<path d="M23.9918 20.2016C24.0828 19.9558 13.6364 12.0679 13.6364 12.0679C12.3286 11.1028 11.6407 11.0876 10.3475 12.0679C10.3475 12.0679 -0.0837344 19.9494 0.0040625 20.1919L0.00195312 20.1937C0.00303125 20.1958 0.00476562 20.1972 0.00621875 20.1991C0.0946837 20.4402 0.223364 20.6646 0.386797 20.8627C0.455844 20.9465 0.539047 21.0166 0.619062 21.0895L0.615172 21.0925C0.621547 21.0982 0.630031 21.1008 0.636406 21.1064C0.975547 21.409 1.40323 21.6049 1.87836 21.6608C1.88581 21.6617 1.89181 21.6656 1.89927 21.6665H1.92795C2.00019 21.6734 2.06886 21.6907 2.14283 21.6907H21.8641C22.8352 21.6907 23.658 21.0801 23.9848 20.224C23.9887 20.2176 23.9947 20.213 23.9982 20.2064L23.9918 20.2016Z" fill="#96A9B2"/>
<path d="M12.0059 11.1627L0.0566406 20.1246V7.42856C0.0566406 6.19106 1.05963 5.18808 2.29713 5.18808H21.7146C22.9521 5.18808 23.9551 6.19106 23.9551 7.42856V20.1246L12.0059 11.1627Z" fill="#B9C5C6"/>
<path d="M0.197266 6.64955L10.3994 14.6628C11.687 15.613 12.3643 15.628 13.6376 14.6628L23.8237 6.66226C23.647 6.34191 23.3824 6.08883 23.0799 5.88704L23.22 5.77726C22.878 5.46596 22.4409 5.26416 21.9557 5.21204L2.05938 5.21274C1.57553 5.26416 1.13772 5.46666 0.796469 5.77726L0.935547 5.88568C0.636484 6.08466 0.374359 6.33338 0.197266 6.64955Z" fill="#EDECE6"/>
<path d="M0.193781 6.66634C0.104203 6.90845 10.3897 14.6747 10.3897 14.6747C11.6773 15.6249 12.3546 15.6399 13.6279 14.6747C13.6279 14.6747 23.8984 6.91473 23.8119 6.67595L23.814 6.67421C23.813 6.6721 23.8112 6.67074 23.8098 6.66882C23.7228 6.4314 23.5961 6.21047 23.4351 6.01543C23.3671 5.93298 23.2852 5.86398 23.2065 5.79217L23.2103 5.78921C23.204 5.78363 23.1957 5.78101 23.1894 5.77543C22.8555 5.47759 22.4344 5.28465 21.9666 5.22957C21.9593 5.22868 21.9533 5.22488 21.946 5.22399H21.9178C21.8467 5.2172 21.7791 5.20013 21.7062 5.20013H2.28872C1.33256 5.20013 0.522469 5.80145 0.200766 6.64431C0.196922 6.65059 0.191016 6.65513 0.1875 6.66156L0.193781 6.66634Z" fill="#DCE2E2"/>
<path d="M13.6593 7.5284H11.8484C11.7719 7.5284 11.6985 7.5588 11.6444 7.61291C11.5903 7.66701 11.5599 7.7404 11.5599 7.81692V8.83514C11.5599 8.91166 11.5903 8.98504 11.6444 9.03915C11.6985 9.09326 11.7719 9.12365 11.8484 9.12365H13.321C13.3975 9.12365 13.4709 9.15405 13.525 9.20816C13.5791 9.26226 13.6095 9.33565 13.6095 9.41217V9.95667C13.6095 10.0332 13.5791 10.1066 13.525 10.1607C13.4709 10.2148 13.3975 10.2452 13.321 10.2452H11.8484C11.7719 10.2452 11.6985 10.2756 11.6444 10.3297C11.5903 10.3838 11.5599 10.4572 11.5599 10.5337V11.6389C11.5599 11.7154 11.5903 11.7888 11.6444 11.8429C11.6985 11.897 11.7719 11.9274 11.8484 11.9274H13.7851C13.8616 11.9274 13.935 11.9578 13.9891 12.0119C14.0432 12.066 14.0736 12.1394 14.0736 12.2159V12.7991C14.0736 12.8756 14.0432 12.949 13.9891 13.0031C13.935 13.0572 13.8616 13.0876 13.7851 13.0876H10.2338C10.1573 13.0876 10.0839 13.0572 10.0298 13.0031C9.97571 12.949 9.94531 12.8756 9.94531 12.7991V6.67603C9.94531 6.59951 9.97571 6.52612 10.0298 6.47202C10.0839 6.41791 10.1573 6.38751 10.2338 6.38751H13.7405C13.9163 6.38751 14.0512 6.54323 14.0261 6.71718L13.9449 7.281C13.935 7.34969 13.9007 7.41251 13.8482 7.45795C13.7957 7.50339 13.7287 7.5284 13.6593 7.5284Z" fill="#597B91"/>
</svg>
