<svg width="22" height="22" viewBox="0 0 22 22" fill="none" xmlns="http://www.w3.org/2000/svg">
<path d="M0.172852 11.2832C0.172852 5.4842 4.87385 0.783203 10.6729 0.783203C16.4719 0.783203 21.1729 5.4842 21.1729 11.2832C21.1729 17.0822 16.4719 21.7832 10.6729 21.7832C4.87385 21.7832 0.172852 17.0822 0.172852 11.2832ZM10.1561 2.2982C10.1647 2.42427 10.1373 2.55018 10.0772 2.66131C10.017 2.77243 9.92659 2.8642 9.81635 2.92595L7.0091 4.4852C6.95176 4.51707 6.89049 4.54128 6.82685 4.5572L6.5366 4.62995L6.6986 5.7632L9.31985 6.2882C9.46607 6.31735 9.60028 6.38942 9.70535 6.4952L12.9229 4.8857V3.49595C12.9228 3.31718 12.9867 3.14428 13.1029 3.00841C13.2191 2.87255 13.38 2.78266 13.5566 2.75495C12.4629 2.3858 11.3085 2.23123 10.1561 2.2982ZM4.5086 4.7252C3.04773 6.09593 2.08684 7.91555 1.7786 9.89495L4.15385 8.7077C4.17085 8.6672 4.19185 8.6282 4.21685 8.5907L5.89535 6.07595C5.99563 5.92544 6.14692 5.81624 6.32135 5.76845L6.17135 4.72145L5.24885 4.9517C5.11674 4.98562 4.97785 4.9825 4.8474 4.94268C4.71695 4.90286 4.59999 4.82787 4.50935 4.72595M1.72235 10.3435C1.68935 10.6515 1.67285 10.9635 1.67285 11.2795V11.287C1.67285 12.31 1.8446 13.294 2.1596 14.2105L4.1921 16.4695C4.25886 16.3892 4.34163 16.3239 4.4351 16.2775L5.7836 15.6025C5.85352 15.5678 5.92842 15.5443 6.0056 15.5327L6.3116 11.8645C6.11861 11.8342 5.94505 11.7298 5.82785 11.5735L4.2416 9.4577C4.17361 9.3673 4.12694 9.26269 4.1051 9.1517L1.72235 10.3435ZM4.03535 16.8557L2.59385 15.2537C3.02326 16.1267 3.59139 16.9243 4.2761 17.6155C4.19309 17.4449 4.12217 17.2687 4.06385 17.0882C4.03917 17.0133 4.02948 16.9343 4.03535 16.8557ZM10.6729 20.2832C12.5974 20.2832 14.3809 19.6787 15.8441 18.6497L16.0286 17.1775C15.9424 17.1887 15.8548 17.1849 15.7699 17.1662L13.5101 16.6637C13.3537 16.6288 13.2125 16.5447 13.1074 16.4237L9.48485 18.0962L9.4811 18.1262L9.28535 19.4987C9.2696 19.6067 9.23135 19.7087 9.17585 19.7987C9.5051 19.9832 9.8501 20.1392 10.1959 20.2712C10.3534 20.2787 10.5124 20.2827 10.6729 20.2832ZM16.4291 16.9967L16.2611 18.3392C17.8663 17.0686 18.9904 15.2887 19.4479 13.2932L18.3506 13.8415C18.3353 13.8807 18.3167 13.9186 18.2951 13.9547L16.5761 16.8197C16.5365 16.8859 16.4869 16.9456 16.4291 16.9967ZM18.3836 13.4057L19.5409 12.8275C19.6289 12.325 19.6729 11.8102 19.6729 11.2832C19.6729 9.31295 19.0399 7.49045 17.9659 6.00845C17.9469 6.17756 17.871 6.33519 17.7506 6.45545L17.0869 7.1192C17.0137 7.1923 16.9263 7.24949 16.83 7.28718C16.7337 7.32487 16.6307 7.34224 16.5274 7.3382L16.8176 11.197C16.8945 11.2478 16.9614 11.3124 17.0149 11.3875L18.2621 13.1335C18.3221 13.216 18.3626 13.3097 18.3836 13.4057ZM6.6911 11.8262L6.3791 15.5702C6.43403 15.5905 6.48638 15.6172 6.5351 15.6497L9.15485 17.3957C9.27168 17.4739 9.3642 17.5833 9.42185 17.7115L12.9394 16.0885C12.9283 16.0367 12.9228 15.9839 12.9229 15.931V12.916C12.9227 12.8078 12.946 12.7008 12.9911 12.6025L9.6131 10.6322C9.56303 10.6688 9.50861 10.699 9.4511 10.7222L6.7061 11.8195L6.6911 11.8262ZM9.8546 10.339L13.2319 12.3092C13.2822 12.2726 13.3368 12.2423 13.3946 12.2192L16.1261 11.1272C16.2235 11.0882 16.328 11.0701 16.4329 11.074L16.1426 7.2152L13.2866 5.50145C13.1831 5.43932 13.0962 5.35313 13.0331 5.2502L9.8951 6.8192C9.9136 6.8842 9.92285 6.9522 9.92285 7.0232V10.0255C9.92298 10.1337 9.8997 10.2406 9.8546 10.339Z" fill="white"/>
</svg>
