<svg width="20" height="21" viewBox="0 0 20 21" fill="none" xmlns="http://www.w3.org/2000/svg">
<path d="M11.0286 0.279419C12.1536 0.282419 12.7246 0.288419 13.2176 0.302419L13.4116 0.309419C13.6356 0.317419 13.8566 0.327419 14.1236 0.339419C15.1876 0.389419 15.9136 0.557419 16.5506 0.804419C17.2106 1.05842 17.7666 1.40242 18.3226 1.95742C18.8313 2.45715 19.2248 3.06189 19.4756 3.72942C19.7226 4.36642 19.8906 5.09242 19.9406 6.15742C19.9526 6.42342 19.9626 6.64442 19.9706 6.86942L19.9766 7.06342C19.9916 7.55542 19.9976 8.12642 19.9996 9.25142L20.0006 9.99742V11.3074C20.003 12.0368 19.9953 12.7662 19.9776 13.4954L19.9716 13.6894C19.9636 13.9144 19.9536 14.1354 19.9416 14.4014C19.8916 15.4664 19.7216 16.1914 19.4756 16.8294C19.2248 17.4969 18.8313 18.1017 18.3226 18.6014C17.8228 19.1101 17.2181 19.5036 16.5506 19.7544C15.9136 20.0014 15.1876 20.1694 14.1236 20.2194L13.4116 20.2494L13.2176 20.2554C12.7246 20.2694 12.1536 20.2764 11.0286 20.2784L10.2826 20.2794H8.97357C8.24383 20.282 7.51409 20.2743 6.78457 20.2564L6.59057 20.2504C6.35318 20.2414 6.11584 20.2311 5.87857 20.2194C4.81457 20.1694 4.08857 20.0014 3.45057 19.7544C2.7834 19.5035 2.17901 19.11 1.67957 18.6014C1.17051 18.1018 0.776678 17.497 0.525569 16.8294C0.278569 16.1924 0.110569 15.4664 0.0605687 14.4014L0.0305688 13.6894L0.0255689 13.4954C0.00713493 12.7662 -0.00119929 12.0368 0.000568797 11.3074V9.25142C-0.0021991 8.52202 0.00513501 7.79262 0.0225689 7.06342L0.0295688 6.86942C0.0375688 6.64442 0.0475688 6.42342 0.0595688 6.15742C0.109569 5.09242 0.277569 4.36742 0.524569 3.72942C0.776263 3.06162 1.17079 2.45686 1.68057 1.95742C2.17972 1.44897 2.78376 1.05549 3.45057 0.804419C4.08857 0.557419 4.81357 0.389419 5.87857 0.339419C6.14457 0.327419 6.36657 0.317419 6.59057 0.309419L6.78457 0.303419C7.51376 0.285652 8.24316 0.277984 8.97257 0.280419L11.0286 0.279419ZM10.0006 5.27942C8.67449 5.27942 7.40272 5.8062 6.46503 6.74389C5.52735 7.68157 5.00057 8.95334 5.00057 10.2794C5.00057 11.6055 5.52735 12.8773 6.46503 13.815C7.40272 14.7526 8.67449 15.2794 10.0006 15.2794C11.3266 15.2794 12.5984 14.7526 13.5361 13.815C14.4738 12.8773 15.0006 11.6055 15.0006 10.2794C15.0006 8.95334 14.4738 7.68157 13.5361 6.74389C12.5984 5.8062 11.3266 5.27942 10.0006 5.27942ZM10.0006 7.27942C10.3945 7.27935 10.7847 7.35689 11.1487 7.50759C11.5127 7.65829 11.8434 7.87922 12.122 8.15775C12.4007 8.43627 12.6217 8.76696 12.7725 9.13091C12.9233 9.49486 13.001 9.88495 13.0011 10.2789C13.0011 10.6729 12.9236 11.063 12.7729 11.427C12.6222 11.791 12.4013 12.1218 12.1227 12.4004C11.8442 12.679 11.5135 12.9 11.1496 13.0509C10.7856 13.2017 10.3955 13.2794 10.0016 13.2794C9.20592 13.2794 8.44286 12.9633 7.88025 12.4007C7.31764 11.8381 7.00157 11.0751 7.00157 10.2794C7.00157 9.48377 7.31764 8.72071 7.88025 8.1581C8.44286 7.59549 9.20592 7.27942 10.0016 7.27942M15.2516 3.77942C14.92 3.77942 14.6021 3.91111 14.3677 4.14554C14.1333 4.37996 14.0016 4.6979 14.0016 5.02942C14.0016 5.36094 14.1333 5.67888 14.3677 5.9133C14.6021 6.14772 14.92 6.27942 15.2516 6.27942C15.5831 6.27942 15.901 6.14772 16.1355 5.9133C16.3699 5.67888 16.5016 5.36094 16.5016 5.02942C16.5016 4.6979 16.3699 4.37996 16.1355 4.14554C15.901 3.91111 15.5831 3.77942 15.2516 3.77942Z" fill="#5A5A5A"/>
</svg>
