<svg width="22" height="22" viewBox="0 0 22 22" fill="none" xmlns="http://www.w3.org/2000/svg">
<path fill-rule="evenodd" clip-rule="evenodd" d="M3.5 0.779419C2.70435 0.779419 1.94129 1.09549 1.37868 1.6581C0.816071 2.22071 0.5 2.98377 0.5 3.77942V18.7794C0.5 19.5751 0.816071 20.3381 1.37868 20.9007C1.94129 21.4633 2.70435 21.7794 3.5 21.7794H18.5C19.2956 21.7794 20.0587 21.4633 20.6213 20.9007C21.1839 20.3381 21.5 19.5751 21.5 18.7794V3.77942C21.5 2.98377 21.1839 2.22071 20.6213 1.6581C20.0587 1.09549 19.2956 0.779419 18.5 0.779419H3.5ZM5.153 7.22492C5.6284 7.22492 6.08433 7.03607 6.42049 6.69991C6.75665 6.36375 6.9455 5.90782 6.9455 5.43242C6.9455 4.95702 6.75665 4.50109 6.42049 4.16493C6.08433 3.82877 5.6284 3.63992 5.153 3.63992C4.6776 3.63992 4.22167 3.82877 3.88551 4.16493C3.54935 4.50109 3.3605 4.95702 3.3605 5.43242C3.3605 5.90782 3.54935 6.36375 3.88551 6.69991C4.22167 7.03607 4.6776 7.22492 5.153 7.22492ZM6.653 18.4989V8.63042H3.653V18.4989H6.653ZM8.645 8.63042H11.645V9.95192C12.0875 9.25892 13.0595 8.32592 14.867 8.32592C17.024 8.32592 18.1955 9.75542 18.1955 12.4749C18.1955 12.6054 18.2075 13.2009 18.2075 13.2009V18.4974H15.2075V13.2024C15.2075 12.4749 15.0545 11.0454 13.4375 11.0454C11.819 11.0454 11.6825 12.8424 11.645 14.0184V18.4974H8.645V8.63042Z" fill="#5A5A5A"/>
</svg>
