<svg width="49" height="49" viewBox="0 0 49 49" fill="none" xmlns="http://www.w3.org/2000/svg">
<rect x="0.5" y="0.5" width="47.22" height="47.2168" rx="23.6084" fill="white" fill-opacity="0.12"/>
<rect x="0.5" y="0.5" width="47.22" height="47.2168" rx="23.6084" stroke="url(#paint0_linear_24_11141)"/>
<path d="M15.3748 13.5261C15.8921 13.3003 16.4333 13.3756 16.8673 13.4364C16.9729 13.4509 17.1187 13.4717 17.2404 13.4797C17.2516 13.43 17.2644 13.3804 17.2772 13.3308C17.4045 12.9036 17.6164 12.5064 17.9003 12.1629C18.1842 11.8193 18.5343 11.5363 18.9298 11.3307C19.2919 11.1308 19.6909 11.0068 20.1025 10.9664C20.5141 10.9259 20.9297 10.9698 21.3238 11.0953C21.878 11.2798 22.4 11.5499 22.8706 11.896C23.2037 12.1218 23.4135 12.2659 23.769 12.3107C23.6527 12.1229 23.5932 11.9055 23.5976 11.6846C23.5976 11.2042 23.8555 10 24.1757 10C24.496 10 24.7538 11.201 24.7538 11.6846C24.7559 11.8951 24.7005 12.1021 24.5937 12.2835C24.8642 12.2028 25.117 12.0713 25.3383 11.896C25.8094 11.5506 26.3312 11.2805 26.8852 11.0953C27.2805 10.9691 27.6974 10.9249 28.1104 10.9654C28.5234 11.0058 28.9238 11.1301 29.2872 11.3307C29.6822 11.5366 30.0319 11.8197 30.3155 12.1633C30.5991 12.5068 30.8108 12.9038 30.9381 13.3308C30.952 13.3809 30.9648 13.4306 30.9766 13.4797C31.0967 13.4797 31.244 13.4509 31.3481 13.4364C31.7836 13.3756 32.3249 13.3003 32.8405 13.5261C33.6412 13.872 34.0447 14.599 33.9614 15.5214C33.8013 17.2636 32.2 18.4038 30.7892 18.724C30.7366 18.7353 30.6829 18.7412 30.6291 18.7416C30.5937 18.7414 30.5584 18.7387 30.5234 18.7336L30.5442 19.1884C30.6299 19.3265 30.6987 19.4743 30.7492 19.6288C30.8725 20.0211 30.9205 20.6264 30.4881 21.3502C30.4881 21.3742 30.4881 21.395 30.4978 21.4079H30.4497L30.3873 21.5071C30.3538 21.5561 30.3111 21.5981 30.2614 21.6306C30.2118 21.6631 30.1563 21.6854 30.098 21.6964C30.0397 21.7074 29.9798 21.7069 29.9217 21.6947C29.8636 21.6826 29.8085 21.6591 29.7595 21.6256C29.7099 21.5923 29.6674 21.5492 29.6346 21.4991H29.601C29.6003 21.5071 29.6003 21.5152 29.601 21.5231C29.601 21.5071 29.2007 20.0275 24.1085 20.0147C19.0162 20.0275 18.6191 21.5071 18.6159 21.5231C18.6166 21.5152 18.6166 21.5071 18.6159 21.4991H18.5839C18.5505 21.5493 18.5075 21.5923 18.4574 21.6256C18.383 21.6769 18.2947 21.7042 18.2044 21.7041C18.1308 21.7043 18.0583 21.6864 17.9933 21.6521C17.9283 21.6177 17.8726 21.568 17.8313 21.5071C17.8088 21.4735 17.788 21.4415 17.7688 21.4079H17.7192C17.7192 21.395 17.7192 21.3742 17.7288 21.3502C17.298 20.6264 17.3445 20.0211 17.4678 19.6288C17.5182 19.4743 17.587 19.3265 17.6727 19.1884L17.6936 18.7336C17.6586 18.7387 17.6232 18.7414 17.5879 18.7416C17.534 18.7413 17.4804 18.7354 17.4277 18.724C16.0106 18.4038 14.4124 17.2604 14.2539 15.5214C14.1722 14.599 14.5806 13.872 15.3748 13.5261ZM22.0588 13.0826C21.6987 12.8172 21.2995 12.6097 20.8754 12.4676C20.6657 12.4035 20.4451 12.3826 20.2271 12.4063C20.0091 12.43 19.7982 12.4977 19.6071 12.6054C19.3844 12.7211 19.1867 12.8798 19.0254 13.0721C18.8641 13.2645 18.7423 13.4868 18.6672 13.7263C18.5412 14.2 18.608 14.7044 18.8529 15.129C19.0982 15.5793 19.5114 15.9143 20.0027 16.061C20.1121 16.0916 20.2128 16.1476 20.2964 16.2245C20.3801 16.3014 20.4444 16.397 20.484 16.5035C20.5237 16.61 20.5376 16.7244 20.5246 16.8373C20.5117 16.9502 20.4722 17.0584 20.4094 17.1531L21.1908 17.4926C21.3109 17.4766 21.4327 17.4606 21.556 17.4478L21.6264 17.4398L22.1741 16.7624C22.0895 16.7095 22.0235 16.6316 21.9852 16.5394C21.9469 16.4473 21.9383 16.3455 21.9604 16.2483C21.9826 16.151 22.0346 16.063 22.109 15.9966C22.1835 15.9302 22.2767 15.8886 22.3759 15.8776C22.4751 15.8666 22.5752 15.8868 22.6624 15.9353C22.7496 15.9838 22.8195 16.0583 22.8624 16.1483C22.9054 16.2384 22.9192 16.3396 22.902 16.4378C22.8849 16.5361 22.8375 16.6266 22.7666 16.6968L23.5672 17.3453H23.7274C23.7274 17.3133 23.7273 17.2812 23.7145 17.2492C23.6857 17.033 23.6553 16.8104 23.6297 16.5847C23.6041 16.3589 23.5784 16.1299 23.5528 15.8993C23.5272 15.6687 23.4888 15.4397 23.4471 15.2139C23.4038 14.9953 23.377 14.7737 23.3671 14.551C23.3652 14.3426 23.3835 14.1345 23.4215 13.9297C23.4343 13.8576 23.4471 13.7887 23.4631 13.7183C22.9511 13.621 22.4697 13.403 22.0588 13.0826ZM19.5943 19.3966L19.4726 19.7921C20.2687 19.4985 21.1 19.3112 21.9451 19.2349L21.8266 18.8521L21.4118 18.724L21.8266 18.5959L21.9146 18.3141L21.6568 18.3397C20.9628 18.404 20.2799 18.5568 19.6248 18.7945L19.5047 18.8409L19.5943 19.134L20.0107 19.2621L19.5943 19.3966ZM28.36 19.0859L28.4625 18.7545C27.8458 18.545 27.2068 18.408 26.5585 18.3461C26.3183 18.3205 26.0781 18.3013 25.8315 18.2869L25.91 18.5415L26.3263 18.6696L25.91 18.7977L25.7899 19.1884C26.699 19.2462 27.5976 19.4151 28.4657 19.6912L28.3568 19.3421L27.942 19.214L28.36 19.0859ZM25.6569 18.5415L25.737 18.2821C25.3079 18.2596 24.8835 18.2516 24.48 18.2484C24.4704 18.3093 24.4624 18.3685 24.4527 18.4262C24.4271 18.5975 24.3983 18.7561 24.3743 18.8954C24.3615 18.9786 24.3487 19.0555 24.3359 19.1244C24.8595 19.1244 25.3383 19.1532 25.777 19.1884L25.6569 18.7977L25.2406 18.6696L25.6569 18.5415ZM24.014 19.1228C24.0028 19.0539 23.99 18.9786 23.9756 18.8954C23.9531 18.7561 23.9227 18.5975 23.8971 18.4262C23.8971 18.3685 23.8795 18.3077 23.8699 18.2468C23.279 18.2468 22.6304 18.2612 21.9963 18.3141L22.0828 18.5959L22.4991 18.724L22.0828 18.8521L21.9659 19.2316C22.6463 19.161 23.3299 19.1246 24.014 19.1228ZM29.5482 13.7279C29.3949 13.2449 29.0571 12.8421 28.6082 12.607C28.4171 12.4994 28.2062 12.4317 27.9882 12.4081C27.7702 12.3844 27.5497 12.4052 27.3399 12.4692C26.9157 12.611 26.5164 12.8185 26.1566 13.0842C25.7774 13.3761 25.3409 13.5845 24.8755 13.6959C24.8931 13.7727 24.9091 13.856 24.9219 13.9313C24.96 14.1361 24.9782 14.3442 24.9764 14.5526C24.968 14.7754 24.9412 14.9971 24.8963 15.2155C24.8547 15.4413 24.8147 15.6719 24.7906 15.9009C24.7666 16.1299 24.7426 16.3605 24.7138 16.5863C24.6849 16.812 24.6577 17.0346 24.6305 17.2508L24.6161 17.3485H24.6481L25.4488 16.6999C25.3776 16.6299 25.3301 16.5394 25.3128 16.441C25.2955 16.3427 25.3092 16.2414 25.3521 16.1512C25.395 16.0611 25.465 15.9865 25.5522 15.938C25.6395 15.8894 25.7397 15.8692 25.8389 15.8802C25.9382 15.8913 26.0315 15.9329 26.106 15.9995C26.1805 16.066 26.2323 16.1541 26.2544 16.2515C26.2765 16.3489 26.2677 16.4507 26.2292 16.5429C26.1907 16.635 26.1245 16.7129 26.0397 16.7656L26.5889 17.443L26.6578 17.451C26.7827 17.4638 26.9044 17.4798 27.0229 17.4958L27.8043 17.1563C27.7423 17.0614 27.7033 16.9533 27.6907 16.8406C27.6781 16.7279 27.6922 16.6138 27.7318 16.5075C27.7714 16.4012 27.8353 16.3058 27.9186 16.2288C28.0019 16.1518 28.102 16.0954 28.2111 16.0642C28.7023 15.9175 29.1156 15.5825 29.3608 15.1323C29.6067 14.7074 29.6741 14.2024 29.5482 13.7279ZM32.5202 15.3901C32.5555 15.0105 32.4049 14.9097 32.2624 14.8504C32.1199 14.7912 31.8141 14.8296 31.545 14.8664C31.3562 14.8958 31.1659 14.915 30.975 14.9241C30.9013 15.2425 30.7827 15.5487 30.6227 15.8336C30.1898 16.6188 29.4639 17.2007 28.6034 17.4526H28.5714L28.7667 17.8993L28.9076 17.949C28.9973 17.9826 29.0822 18.0194 29.1655 18.0563L29.9037 18.0226C29.9021 17.8578 29.957 17.6974 30.0593 17.568C30.1615 17.4387 30.305 17.3482 30.4657 17.3117C31.4185 17.1019 32.4306 16.3701 32.5202 15.3901ZM29.8925 20.4567C29.9413 20.2754 29.9385 20.084 29.8845 19.9042C29.7435 19.4606 29.2711 19.0571 28.589 18.8009L28.5217 18.7753L28.6178 19.0859L29.0325 19.214L28.6178 19.3421L28.5057 19.704C29.011 19.8658 29.4814 20.1211 29.8925 20.4567ZM19.4614 19.7969L19.3381 19.3966L18.9218 19.2685L19.3381 19.1404L19.4166 18.8874C18.8465 19.1436 18.4558 19.5071 18.3309 19.9042C18.2756 20.0838 18.2722 20.2753 18.3213 20.4567C18.662 20.175 19.0474 19.952 19.4614 19.7969ZM15.6935 15.3901C15.7832 16.3701 16.7952 17.1019 17.7496 17.3117C17.9102 17.3485 18.0535 17.439 18.1557 17.5683C18.2579 17.6976 18.3129 17.8579 18.3117 18.0226L19.0499 18.0563C19.1331 18.0194 19.21 17.9826 19.3061 17.949L19.4486 17.8993L19.6424 17.4526H19.6103C18.7501 17.2003 18.0244 16.6184 17.5911 15.8336C17.4315 15.5487 17.3135 15.2424 17.2404 14.9241C17.0489 14.9151 16.8581 14.8959 16.6687 14.8664C16.4013 14.8296 16.0954 14.7864 15.9513 14.8504C15.8072 14.9145 15.6599 15.0105 15.6935 15.3901Z" fill="url(#paint1_linear_24_11141)"/>
<path d="M24.6289 17.2495C24.6561 17.0333 24.6865 16.8107 24.7121 16.5849C24.7378 16.3592 24.7634 16.1302 24.789 15.8996C24.8146 15.669 24.8531 15.44 24.8947 15.2142C24.9332 15.0181 24.9588 14.8196 24.9716 14.6201C24.9716 14.681 24.9716 14.7418 24.9716 14.8043C24.9633 15.0271 24.9365 15.2488 24.8915 15.4672C24.8499 15.6946 24.8098 15.9236 24.7858 16.1542C24.7618 16.3848 24.7378 16.6122 24.7089 16.8396C24.6897 17.0109 24.6673 17.179 24.6465 17.3456H24.6113L24.6289 17.2495Z" fill="url(#paint2_linear_24_11141)"/>
<path d="M24.3743 18.895C24.3983 18.7557 24.4272 18.5971 24.4528 18.4258C24.4624 18.3681 24.4704 18.3089 24.48 18.248C24.8836 18.248 25.3079 18.2592 25.7371 18.2817L25.6586 18.5315C25.2583 18.5123 24.8579 18.5043 24.48 18.501C24.4704 18.5619 24.4624 18.6212 24.4528 18.6788C24.4288 18.8389 24.4016 18.9991 24.3791 19.124H24.3359C24.3487 19.0535 24.3615 18.9782 24.3743 18.895Z" fill="url(#paint3_linear_24_11141)"/>
<path d="M25.3432 16.7837C25.3234 16.7325 25.3126 16.6784 25.3111 16.6236C25.3117 16.5807 25.3181 16.5381 25.3304 16.4971C25.3519 16.5748 25.3926 16.6458 25.4489 16.7036L25.3432 16.7837Z" fill="url(#paint4_linear_24_11141)"/>
<path d="M28.6082 12.8583C28.417 12.7511 28.2061 12.6836 27.9881 12.6599C27.7702 12.6363 27.5497 12.6569 27.3399 12.7206C26.916 12.863 26.5168 13.0704 26.1566 13.3355C25.7889 13.6156 25.3692 13.8197 24.9219 13.936C24.9091 13.8559 24.8931 13.7759 24.8755 13.7006C25.3409 13.5893 25.7774 13.3808 26.1566 13.0889C26.5164 12.8232 26.9157 12.6157 27.3399 12.474C27.5497 12.4099 27.7702 12.3891 27.9882 12.4128C28.2062 12.4365 28.4171 12.5041 28.6082 12.6117C29.057 12.8468 29.3949 13.2497 29.5482 13.7326C29.5982 13.921 29.6161 14.1164 29.601 14.3107C29.5923 14.1992 29.573 14.0887 29.5434 13.9808C29.3916 13.4981 29.0556 13.0947 28.6082 12.8583Z" fill="url(#paint5_linear_24_11141)"/>
<path d="M27.8044 17.1543L27.71 17.1943C27.683 17.0896 27.6792 16.9803 27.6988 16.874C27.702 16.8983 27.7068 16.9224 27.7132 16.9461C27.7324 17.0199 27.7632 17.0901 27.8044 17.1543Z" fill="url(#paint6_linear_24_11141)"/>
<path d="M26.5586 18.3458C27.2058 18.4079 27.8437 18.545 28.4594 18.7542L28.3889 18.9847C27.7949 18.7891 27.181 18.6596 26.5586 18.5988C26.3504 18.5764 26.1422 18.5604 25.9325 18.5476H25.91L25.8316 18.293C26.0782 18.301 26.3216 18.3138 26.5586 18.3458Z" fill="url(#paint7_linear_24_11141)"/>
<path d="M26.1565 16.9079L26.0397 16.7638C26.1368 16.7007 26.2079 16.6046 26.2398 16.4932C26.2519 16.5337 26.2584 16.5757 26.259 16.6181C26.2575 16.7233 26.2215 16.8251 26.1565 16.9079Z" fill="url(#paint8_linear_24_11141)"/>
<path d="M19.6248 18.7949C20.2789 18.5574 20.9607 18.4046 21.6537 18.3401L21.9147 18.3145L21.8346 18.5771L21.6569 18.5931C20.9641 18.6583 20.2823 18.8111 19.628 19.0479L19.5767 19.0671L19.5079 18.8413L19.6248 18.7949Z" fill="url(#paint9_linear_24_11141)"/>
<path d="M30.6227 15.8337C30.7827 15.5487 30.9014 15.2425 30.975 14.9241C31.1659 14.9151 31.3562 14.8958 31.5451 14.8665C31.8141 14.8296 32.1183 14.788 32.2625 14.8505C32.4066 14.9129 32.5555 15.0106 32.5203 15.3901V15.4189C32.5132 15.3469 32.4856 15.2785 32.4407 15.2217C32.3959 15.1649 32.3357 15.1222 32.2673 15.0987C32.1232 15.0362 31.8189 15.0778 31.5499 15.1147C31.361 15.1446 31.1707 15.1644 30.9798 15.1739C30.9059 15.4922 30.7873 15.7984 30.6275 16.0835C30.2063 16.8485 29.5067 17.4219 28.6739 17.6848L28.5762 17.4606H28.6082C29.4683 17.2057 30.1925 16.6208 30.6227 15.8337Z" fill="url(#paint10_linear_24_11141)"/>
<path d="M28.5892 18.7949C29.2713 19.0511 29.7437 19.4546 29.8846 19.8982C29.9265 20.0333 29.9379 20.1761 29.9183 20.3161C29.9116 20.2619 29.9004 20.2083 29.8846 20.156C29.7725 19.8021 29.4491 19.477 28.9783 19.2272L29.0327 19.2112L28.7957 19.1376C28.7365 19.1103 28.674 19.0847 28.61 19.0591L28.5219 18.7725L28.5892 18.7949Z" fill="url(#paint11_linear_24_11141)"/>
<path d="M22.8756 16.4922C22.8878 16.5333 22.8942 16.5758 22.8948 16.6187C22.894 16.6734 22.8837 16.7276 22.8643 16.7788L22.7587 16.694C22.8141 16.6377 22.8543 16.5683 22.8756 16.4922Z" fill="url(#paint12_linear_24_11141)"/>
<path d="M15.9514 14.8502C16.0955 14.7861 16.4014 14.8294 16.6688 14.8662C16.8582 14.8956 17.049 14.9149 17.2405 14.9238C17.3135 15.2422 17.4316 15.5484 17.5912 15.8334C18.0245 16.6182 18.7502 17.2 19.6104 17.4523H19.6425L19.5448 17.6765C18.7122 17.4132 18.0128 16.8399 17.5912 16.0752C17.4319 15.7901 17.3138 15.4839 17.2405 15.1656C17.049 15.1562 16.8581 15.1364 16.6688 15.1064C16.4014 15.0696 16.0955 15.0279 15.9514 15.0904C15.883 15.1139 15.8228 15.1566 15.7779 15.2134C15.7331 15.2702 15.7055 15.3386 15.6984 15.4106V15.3818C15.66 15.0103 15.8089 14.9126 15.9514 14.8502Z" fill="url(#paint13_linear_24_11141)"/>
<path d="M24.5986 12.2768C24.6846 12.1262 24.7355 11.9581 24.7476 11.7852C24.7476 11.838 24.7476 11.8892 24.7476 11.9325C24.7474 12.0356 24.7345 12.1384 24.7091 12.2383C24.6771 12.2511 24.6371 12.2656 24.5986 12.2768Z" fill="url(#paint14_linear_24_11141)"/>
<path d="M18.3309 19.9045C18.4558 19.5074 18.8466 19.1439 19.4166 18.8877L19.3382 19.1407L18.9218 19.2688L19.0819 19.3185C18.7396 19.5005 18.4733 19.7985 18.3309 20.1591C18.3146 20.2114 18.3029 20.265 18.2957 20.3193C18.277 20.1801 18.289 20.0385 18.3309 19.9045Z" fill="url(#paint15_linear_24_11141)"/>
<path d="M14.2557 15.5218C14.4158 17.2641 16.0171 18.4042 17.4295 18.7245C17.4821 18.7359 17.5358 18.7418 17.5896 18.7421C17.625 18.7419 17.6603 18.7392 17.6953 18.7341L17.6841 18.9871C17.6527 18.9895 17.6211 18.9895 17.5896 18.9871C17.5358 18.9868 17.4821 18.9809 17.4295 18.9695C16.0123 18.6492 14.4142 17.5059 14.2557 15.7668C14.2469 15.6458 14.2469 15.5243 14.2557 15.4033C14.2509 15.4482 14.2525 15.485 14.2557 15.5218Z" fill="url(#paint16_linear_24_11141)"/>
<path d="M30.6243 18.9976C30.5929 19 30.5613 19 30.5299 18.9976L30.5186 18.7446C30.5536 18.7497 30.589 18.7524 30.6243 18.7526C30.6782 18.7522 30.7318 18.7463 30.7845 18.735C32.2016 18.4148 33.7982 17.2714 33.9567 15.5324C33.9567 15.4955 33.9567 15.4587 33.9567 15.4219C33.9654 15.5429 33.9654 15.6644 33.9567 15.7854C33.7966 17.5276 32.1952 18.6678 30.7845 18.988C30.7315 18.9966 30.6779 18.9998 30.6243 18.9976Z" fill="url(#paint17_linear_24_11141)"/>
<path d="M17.3894 20.3138C17.4181 20.6826 17.5351 21.039 17.7305 21.3531C17.7305 21.3771 17.7305 21.3979 17.7209 21.4107H17.7705C17.7897 21.4444 17.8105 21.4764 17.833 21.51C17.8743 21.5708 17.93 21.6206 17.995 21.6549C18.06 21.6893 18.1325 21.7071 18.2061 21.707C18.2964 21.7071 18.3847 21.6797 18.4591 21.6285C18.5092 21.5952 18.5522 21.5522 18.5856 21.502H18.6176C18.6183 21.51 18.6183 21.518 18.6176 21.526C18.6176 21.51 19.0179 20.0304 24.1102 20.0176C29.2024 20.0304 29.5995 21.51 29.6027 21.526C29.602 21.518 29.602 21.51 29.6027 21.502H29.6363C29.6691 21.5521 29.7116 21.5951 29.7612 21.6285C29.8102 21.662 29.8653 21.6854 29.9234 21.6976C29.9815 21.7097 30.0414 21.7103 30.0997 21.6993C30.158 21.6883 30.2135 21.6659 30.2631 21.6334C30.3128 21.601 30.3555 21.559 30.389 21.51L30.4514 21.4107H30.4995C30.4995 21.3979 30.4995 21.3771 30.4898 21.3531C30.6864 21.0394 30.804 20.6828 30.8325 20.3138C30.855 20.7697 30.7353 21.2213 30.4898 21.6061C30.4898 21.6317 30.4931 21.6509 30.4995 21.6637H30.4514L30.389 21.7614C30.3471 21.8231 30.2907 21.8734 30.2246 21.908C30.1586 21.9425 30.085 21.9602 30.0105 21.9594C29.936 21.9586 29.8628 21.9394 29.7975 21.9034C29.7322 21.8675 29.6769 21.816 29.6363 21.7534H29.6027C29.6019 21.7614 29.6019 21.7694 29.6027 21.7774C29.6027 21.763 29.2024 20.2818 24.1102 20.269C19.0179 20.2818 18.6208 21.763 18.6176 21.7774C18.6184 21.7694 18.6184 21.7614 18.6176 21.7534H18.5856C18.5523 21.8041 18.5093 21.8476 18.4591 21.8815C18.3845 21.9323 18.2963 21.9591 18.2061 21.9584C18.1325 21.9585 18.06 21.9407 17.995 21.9063C17.93 21.872 17.8743 21.8223 17.833 21.7614C17.8105 21.7294 17.7897 21.6958 17.7705 21.6637H17.7209C17.7209 21.6509 17.7241 21.6317 17.7305 21.6061C17.4846 21.2215 17.3654 20.7696 17.3894 20.3138Z" fill="url(#paint18_linear_24_11141)"/>
<path d="M23.5609 15.8992C23.5866 16.1298 23.609 16.3588 23.6378 16.5846C23.6666 16.8104 23.6938 17.033 23.7227 17.2491C23.7227 17.2812 23.7307 17.3132 23.7355 17.3452H23.7018C23.6794 17.1771 23.657 17.009 23.6378 16.8376C23.609 16.6102 23.5866 16.3812 23.5609 16.1522C23.5353 15.9232 23.4969 15.6927 23.4552 15.4653C23.4118 15.2466 23.385 15.025 23.3752 14.8023C23.3752 14.7399 23.3752 14.679 23.3752 14.6182C23.3865 14.8177 23.4117 15.0162 23.4504 15.2123C23.4969 15.4396 23.5369 15.6702 23.5609 15.8992Z" fill="url(#paint19_linear_24_11141)"/>
<path d="M23.8699 18.2471C23.8795 18.3079 23.8891 18.3688 23.8971 18.4264C23.9228 18.5978 23.9532 18.7563 23.9756 18.8956C23.99 18.9789 24.0028 19.0557 24.014 19.123H23.9708C23.9484 18.9885 23.9228 18.8396 23.8971 18.6778C23.8971 18.6202 23.8795 18.5609 23.8699 18.5001C23.3031 18.5001 22.6833 18.5129 22.0732 18.5609L21.9964 18.3127C22.6305 18.2615 23.279 18.2503 23.8699 18.2471Z" fill="url(#paint20_linear_24_11141)"/>
<path d="M21.9739 16.4932C22.0058 16.6046 22.0769 16.7007 22.1741 16.7638L22.0588 16.9079C22.0112 16.8513 21.9785 16.7837 21.9637 16.7113C21.9489 16.6389 21.9524 16.5639 21.9739 16.4932Z" fill="url(#paint21_linear_24_11141)"/>
<path d="M18.6672 13.7279C18.7424 13.4884 18.8642 13.266 19.0255 13.0737C19.1868 12.8813 19.3845 12.7227 19.6072 12.6069C19.7982 12.4993 20.0092 12.4316 20.2272 12.4079C20.4452 12.3842 20.6657 12.4051 20.8754 12.4692C21.2995 12.6113 21.6988 12.8188 22.0588 13.0841C22.4716 13.4075 22.956 13.6271 23.4712 13.7247C23.4552 13.7951 23.4424 13.864 23.4296 13.936V13.9697C22.9324 13.867 22.4653 13.6524 22.0636 13.342C21.7032 13.0772 21.304 12.8698 20.8802 12.727C20.6705 12.6633 20.45 12.6426 20.2321 12.6663C20.0141 12.6899 19.8032 12.7574 19.612 12.8648C19.3893 12.9805 19.1916 13.1392 19.0303 13.3315C18.869 13.5239 18.7472 13.7462 18.672 13.9857C18.6416 14.0934 18.6223 14.2039 18.6144 14.3156C18.5966 14.1181 18.6144 13.919 18.6672 13.7279Z" fill="url(#paint22_linear_24_11141)"/>
<path d="M20.5023 16.9529C20.5023 16.9289 20.5104 16.9049 20.5152 16.8809C20.5364 16.987 20.5326 17.0967 20.5039 17.2011L20.4095 17.1611C20.4512 17.097 20.4825 17.0268 20.5023 16.9529Z" fill="url(#paint23_linear_24_11141)"/>
<path d="M15.0386 24.2853C15.0194 24.3061 14.997 24.3269 14.9714 24.351C14.8467 24.4696 14.7117 24.5768 14.5678 24.6712C14.3957 24.7824 14.2093 24.8697 14.0138 24.9306C13.8115 24.995 13.5998 25.0248 13.3876 25.0187C13.1783 25.0098 12.972 24.9654 12.7775 24.8874C12.5901 24.8117 12.4177 24.7033 12.2683 24.5671C12.1998 24.5066 12.1351 24.4419 12.0746 24.3734C12.0246 24.3128 11.9787 24.2492 11.9368 24.1828C11.9176 24.154 11.9016 24.1284 11.8872 24.1028L11.8536 24.0403C11.8456 24.0264 11.8386 24.012 11.8327 23.9971V23.9827L11.8456 23.973L11.8824 23.9426L11.94 23.8994C11.9625 23.8818 11.9881 23.8658 12.0169 23.8465C12.0826 23.8035 12.1504 23.7639 12.2203 23.728C12.2971 23.688 12.3804 23.6464 12.4749 23.6095C12.6662 23.5339 12.8655 23.4802 13.069 23.4494C13.2751 23.4188 13.4841 23.4112 13.6919 23.427C13.8854 23.44 14.0762 23.4799 14.2588 23.5455C14.3849 23.5853 14.5063 23.639 14.6207 23.7056L14.4413 23.4766C14.3372 23.3373 14.2075 23.1452 14.0746 22.9562C13.9417 22.7672 13.8296 22.5655 13.7431 22.4133L13.607 22.1587L13.5782 22.1796C13.5572 22.1911 13.5368 22.204 13.5173 22.218L13.4373 22.2644C13.2877 22.3491 13.1306 22.4199 12.9681 22.4758C12.7722 22.5426 12.5679 22.5819 12.3612 22.5927C12.1472 22.5997 11.9336 22.5688 11.7303 22.5014C11.5204 22.4347 11.3264 22.3257 11.1602 22.1812C10.9946 22.0398 10.8533 21.872 10.7422 21.6847C10.6941 21.597 10.6508 21.5066 10.6125 21.4141C10.5773 21.326 10.5485 21.254 10.5277 21.1739C10.5181 21.1387 10.5085 21.1067 10.502 21.0762C10.4956 21.0458 10.4924 21.0186 10.4876 20.9978C10.4828 20.977 10.4876 20.9577 10.4876 20.9449V20.9273H10.502L10.5469 20.9097L10.6157 20.8873C10.6452 20.8772 10.6751 20.8686 10.7054 20.8617C10.7812 20.8407 10.8582 20.8246 10.936 20.8136C11.0278 20.7993 11.1203 20.7902 11.213 20.7864C11.4205 20.7784 11.6282 20.7924 11.8327 20.828C12.0407 20.8639 12.2438 20.9236 12.4381 21.0058C12.6194 21.0823 12.7927 21.1767 12.9553 21.2876C13.0944 21.3913 13.2221 21.5094 13.3364 21.6399C13.357 21.6634 13.3762 21.6879 13.394 21.7136L13.3492 21.6127C13.3236 21.5518 13.2819 21.4734 13.2531 21.3901C13.1923 21.23 13.1298 21.0602 13.1298 21.0602H13.0882L13.0241 21.0426L12.9409 21.0186C12.7952 20.9665 12.6573 20.8948 12.5309 20.8056C12.456 20.7524 12.3854 20.6935 12.3196 20.6295C12.2544 20.5608 12.1965 20.4857 12.1466 20.4053C12.0366 20.2403 11.9654 20.0525 11.9384 19.856C11.9049 19.6597 11.9158 19.4583 11.9705 19.2667C12.0191 19.0837 12.1047 18.9126 12.2219 18.7639C12.2751 18.6976 12.3335 18.6355 12.3964 18.5782C12.4467 18.5297 12.5002 18.4848 12.5566 18.4437L12.6254 18.3972C12.6438 18.3847 12.6631 18.3735 12.6831 18.3636L12.7199 18.3428H12.7343L12.7471 18.3524L12.7823 18.378L12.8352 18.4196L12.9008 18.4741C12.9489 18.5157 13.0001 18.5622 13.061 18.615C13.1218 18.6678 13.1699 18.7255 13.2211 18.7847C13.3276 18.9038 13.4205 19.0343 13.4981 19.1739C13.6448 19.4438 13.6919 19.7567 13.631 20.0578C13.6151 20.1371 13.5937 20.2152 13.567 20.2916C13.5442 20.3693 13.5158 20.4453 13.4821 20.519C13.42 20.654 13.3477 20.784 13.2659 20.9081L13.2211 20.977L13.1827 21.0314L13.1587 21.065L13.2211 21.2108C13.2611 21.2988 13.3044 21.4189 13.3652 21.531L13.5254 21.8433L13.5782 21.9458L13.6006 21.9842C13.5949 21.9663 13.5901 21.9481 13.5862 21.9298C13.554 21.764 13.5508 21.5938 13.5766 21.4269C13.6103 21.2442 13.68 21.07 13.7816 20.9145C13.8878 20.7479 14.0228 20.6014 14.1803 20.4821C14.3403 20.3597 14.5138 20.256 14.6975 20.1731C14.784 20.1331 14.8737 20.0978 14.9537 20.0674C15.0338 20.037 15.1139 20.013 15.1763 19.9937L15.2676 19.9665L15.3365 19.9489L15.3829 19.9377H15.3989C15.403 19.9444 15.4068 19.9514 15.4101 19.9585C15.4161 19.9694 15.4214 19.9806 15.4261 19.9921C15.4327 20.0061 15.438 20.0205 15.4421 20.0354C15.4534 20.069 15.4614 20.109 15.4742 20.1539C15.484 20.2035 15.4893 20.2538 15.4902 20.3044C15.4903 20.3646 15.4844 20.4247 15.4726 20.4837C15.4621 20.5525 15.4472 20.6204 15.4277 20.6871C15.375 20.8455 15.3058 20.998 15.2212 21.1419C15.1253 21.3124 15.0132 21.4733 14.8865 21.6223C14.7555 21.777 14.6114 21.9201 14.4557 22.0498C14.325 22.1605 14.1858 22.2606 14.0394 22.3493L13.9593 22.3957L13.8953 22.431L13.8712 22.4422L14.0314 22.676L14.1915 22.913L14.3885 23.1548C14.523 23.3357 14.6751 23.5038 14.784 23.6352L14.9185 23.7953L14.9714 23.8513C14.9275 23.7374 14.9005 23.6176 14.8913 23.4958C14.8729 23.3101 14.8903 23.1226 14.9425 22.9434C14.9977 22.7512 15.0831 22.569 15.1955 22.4037C15.3076 22.237 15.4393 22.0843 15.5879 21.949C15.6583 21.8817 15.7304 21.8225 15.7992 21.768C15.8681 21.7136 15.9321 21.6687 15.9882 21.6287L16.0667 21.5775L16.1275 21.539L16.1675 21.515L16.182 21.507H16.19L16.2108 21.5262C16.2217 21.5361 16.2319 21.5468 16.2412 21.5582C16.2546 21.5722 16.267 21.5872 16.278 21.6031C16.3069 21.6409 16.3326 21.6811 16.3549 21.7232C16.381 21.775 16.4034 21.8285 16.4222 21.8833C16.4706 22.0172 16.4945 22.1588 16.4926 22.3013C16.4927 22.475 16.4717 22.6482 16.4302 22.8169C16.3812 23.0087 16.3125 23.1949 16.2252 23.3725C16.0612 23.7078 15.8414 24.0127 15.575 24.2741L15.5078 24.3381L15.4806 24.3622C15.4806 24.3622 15.7768 24.6536 16.0939 24.921C16.254 25.0603 16.4141 25.1836 16.5358 25.2813C16.6575 25.379 16.7392 25.4415 16.7392 25.4415C16.7074 25.3762 16.6817 25.3081 16.6624 25.2381C16.6102 25.0578 16.5896 24.8698 16.6015 24.6824C16.6157 24.482 16.6605 24.2848 16.7344 24.0979C16.8097 23.9105 16.9058 23.7322 17.0211 23.5663C17.0755 23.4862 17.1347 23.4062 17.1892 23.3453C17.2436 23.2845 17.2965 23.2188 17.3493 23.1676L17.415 23.1003L17.4662 23.0507L17.5015 23.0187L17.5143 23.0074L17.5415 23.0234L17.5799 23.0507C17.5962 23.063 17.6117 23.0764 17.6263 23.0907C17.6647 23.1244 17.7001 23.1614 17.732 23.2012C17.7715 23.2488 17.8084 23.2985 17.8425 23.3501C17.9203 23.4765 17.9746 23.616 18.0027 23.7617C18.0442 23.9335 18.0598 24.1105 18.0491 24.2869C18.0384 24.4856 18.0067 24.6826 17.9546 24.8746C17.9014 25.0689 17.8296 25.2577 17.74 25.4383C17.6645 25.5918 17.5766 25.7391 17.4774 25.8786C17.463 25.8994 17.4486 25.9171 17.4374 25.9347L17.6376 26.0692C17.7577 26.1492 17.9242 26.2469 18.0875 26.3478C18.2509 26.4487 18.4222 26.54 18.5471 26.6136L18.7569 26.7305L18.7137 26.6473C18.6334 26.4772 18.5825 26.2947 18.5631 26.1076C18.5423 25.9076 18.5526 25.7056 18.5936 25.5087C18.635 25.3107 18.6984 25.1178 18.7825 24.9338C18.8241 24.8458 18.869 24.7625 18.9106 24.6872C18.9523 24.612 18.9955 24.5431 19.0339 24.4871L19.0868 24.4086L19.13 24.351L19.1588 24.3125L19.1684 24.2997H19.178L19.2085 24.3125L19.2517 24.3333L19.3045 24.3654C19.3489 24.3933 19.3912 24.4243 19.431 24.4582C19.4797 24.4985 19.5257 24.5418 19.5688 24.5879C19.668 24.7015 19.7476 24.8309 19.8042 24.9707C19.8721 25.1344 19.9163 25.3069 19.9355 25.4831C19.9563 25.6806 19.9563 25.8797 19.9355 26.0772C19.9143 26.2782 19.8735 26.4766 19.8138 26.6697C19.7644 26.8346 19.7017 26.9953 19.6264 27.1501L19.8314 27.243L20.2942 27.4415C20.4543 27.5136 20.632 27.568 20.7586 27.6161L20.9683 27.6913C20.8662 27.5404 20.7894 27.3738 20.7409 27.1981C20.6874 27.0048 20.6648 26.8044 20.6737 26.604C20.682 26.4014 20.7137 26.2004 20.7682 26.0051C20.7922 25.9123 20.8242 25.8226 20.853 25.7409C20.8819 25.6592 20.9139 25.5808 20.9411 25.5231C20.9571 25.4911 20.9699 25.4639 20.9811 25.4383C20.9923 25.4126 21.0052 25.3918 21.0132 25.3726C21.0212 25.3534 21.0308 25.3406 21.0356 25.331V25.3166H21.0468L21.0772 25.3246L21.122 25.339C21.1418 25.3449 21.1611 25.3524 21.1797 25.3614C21.2229 25.3774 21.2678 25.4046 21.319 25.4302C21.3751 25.4606 21.4287 25.4954 21.4792 25.5343C21.592 25.6297 21.6893 25.742 21.7674 25.8674C21.8595 26.0169 21.9301 26.1786 21.9772 26.3478C22.031 26.537 22.0654 26.7313 22.0796 26.9275C22.0934 27.1293 22.0885 27.3319 22.0652 27.5328C22.0468 27.6851 22.0179 27.836 21.9788 27.9844C21.9788 27.9844 22.0364 28.002 22.1389 28.0244L22.5616 28.1157C22.7362 28.1525 22.9428 28.1797 23.1621 28.2166C23.3815 28.2534 23.6169 28.2742 23.8523 28.2854L24.203 28.303C24.3183 28.303 24.432 28.303 24.5409 28.303C24.7619 28.303 24.9636 28.2806 25.1366 28.2694C25.3095 28.2582 25.4568 28.223 25.5513 28.2118L25.7115 28.1877L25.8444 28.9612L25.6506 28.9836C25.5273 28.9932 25.3528 29.0236 25.1414 29.0252C24.6301 29.0468 24.1178 29.0238 23.6105 28.9564C23.1105 28.887 22.6156 28.7842 22.1293 28.6489C21.9307 28.6009 21.769 28.5432 21.6489 28.508L21.4695 28.4503C21.4213 28.5995 21.3614 28.7446 21.2902 28.8843C21.1975 29.0672 21.08 29.2364 20.9411 29.3871C20.7985 29.5418 20.6319 29.6727 20.4479 29.7747C20.2681 29.8762 20.071 29.9435 19.8666 29.9732C19.6743 30.0061 19.4777 30.0061 19.2853 29.9732C19.2004 29.9559 19.1165 29.934 19.0339 29.9076C18.9571 29.8819 18.8882 29.8547 18.8305 29.8291L18.7521 29.7907L18.6928 29.7586L18.6576 29.7346L18.6448 29.7266V29.7106C18.6448 29.701 18.6544 29.685 18.6592 29.6658C18.664 29.6465 18.6768 29.6241 18.6864 29.5985C18.696 29.5729 18.7089 29.5441 18.7233 29.512C18.7521 29.4496 18.7889 29.3791 18.8322 29.3039C18.8779 29.2226 18.9282 29.1441 18.9827 29.0685C19.1023 28.9014 19.2404 28.7483 19.3942 28.6121C19.549 28.4746 19.7207 28.3573 19.905 28.263C20.0773 28.1761 20.2596 28.111 20.4479 28.0692L20.2301 27.9796L19.7625 27.7602C19.5912 27.6817 19.4278 27.5904 19.3013 27.5264L19.0932 27.4191C19.0932 27.4191 19.0932 27.4191 19.0932 27.4319C19.0157 27.585 18.9245 27.7307 18.8209 27.8675C18.697 28.0299 18.5528 28.1757 18.3918 28.3014C18.2257 28.4301 18.0403 28.5317 17.8425 28.6025C17.6499 28.6713 17.4466 28.7054 17.242 28.7034C17.0487 28.7034 16.8569 28.6698 16.6752 28.6041C16.5948 28.5738 16.5162 28.539 16.4398 28.5C16.3751 28.4671 16.3125 28.4302 16.2524 28.3895C16.2268 28.3719 16.2028 28.3575 16.182 28.3399L16.1307 28.2982C16.1179 28.2854 16.1051 28.2758 16.0987 28.2678L16.0875 28.2582C16.087 28.2534 16.087 28.2486 16.0875 28.2438L16.1099 28.2021L16.1467 28.1397C16.1611 28.1157 16.1788 28.0885 16.198 28.0612C16.2364 28.0036 16.2828 27.9395 16.3373 27.8723C16.5264 27.6415 16.7514 27.4426 17.0034 27.283C17.1786 27.1714 17.3675 27.0831 17.5655 27.0204C17.7501 26.9632 17.941 26.9293 18.134 26.9195H18.2461L18.0331 26.7866L17.5911 26.4807C17.431 26.3686 17.2709 26.2437 17.1476 26.1605C17.0243 26.0772 16.9506 26.0003 16.9506 26.0003C16.9506 26.0003 16.9218 26.0404 16.9074 26.0628C16.8052 26.2002 16.6916 26.3287 16.5679 26.4471C16.4196 26.5881 16.2532 26.7087 16.0731 26.8058C15.8875 26.9053 15.6876 26.9756 15.4806 27.014C15.2782 27.0492 15.0712 27.0492 14.8689 27.014C14.676 26.9817 14.4905 26.915 14.3212 26.817C14.2458 26.7727 14.1731 26.7241 14.1034 26.6713C14.0441 26.6271 13.9874 26.5796 13.9337 26.5288C13.9113 26.5063 13.8905 26.4855 13.8728 26.4647L13.828 26.4135L13.8008 26.3782L13.7912 26.3654L13.8008 26.3526L13.8296 26.3158L13.8776 26.2597L13.9417 26.1909C13.9897 26.1412 14.0474 26.0868 14.113 26.0307C14.183 25.9697 14.2562 25.9125 14.3324 25.8594C14.5004 25.7421 14.6815 25.6449 14.8721 25.5696C15.0647 25.4912 15.2665 25.4374 15.4726 25.4094C15.6645 25.3846 15.8588 25.3846 16.0506 25.4094C16.1305 25.4204 16.2096 25.4359 16.2876 25.4559L16.0875 25.2797C15.9674 25.1724 15.8153 25.0219 15.6615 24.8746C15.5078 24.7273 15.3637 24.5671 15.2532 24.4534C15.1971 24.3958 15.1523 24.3462 15.1219 24.3109L15.0738 24.2549L15.0386 24.2853Z" fill="url(#paint24_linear_24_11141)"/>
<path d="M33.1753 24.2858L33.2425 24.3515C33.3671 24.4702 33.5022 24.5774 33.6461 24.6718C33.8183 24.7827 34.0046 24.8699 34.2001 24.9312C34.4024 24.9955 34.6141 25.0253 34.8262 25.0192C35.0361 25.0103 35.2429 24.9659 35.438 24.8879C35.6252 24.8119 35.7976 24.7035 35.9472 24.5677C36.0763 24.4569 36.188 24.3273 36.2786 24.1834L36.3267 24.1033L36.3619 24.0408L36.3827 23.9976V23.9832L36.3699 23.9736L36.3347 23.9432L36.2754 23.8999C36.253 23.8823 36.2274 23.8663 36.1986 23.8471C36.1329 23.804 36.065 23.7645 35.9952 23.7286C35.9183 23.6885 35.8351 23.6469 35.7406 23.6101C35.5493 23.5342 35.35 23.4805 35.1465 23.45C34.9409 23.4193 34.7325 23.4118 34.5252 23.4275C34.3311 23.4406 34.1398 23.4805 33.9567 23.546C33.8309 23.5855 33.7101 23.6393 33.5964 23.7062L33.7742 23.4772C33.8783 23.3379 34.008 23.1457 34.1409 22.9567C34.2738 22.7678 34.3875 22.566 34.4723 22.4139L34.6085 22.1593L34.6389 22.1801L34.6997 22.2185C34.7238 22.2329 34.7494 22.249 34.7798 22.265C34.9307 22.3509 35.0894 22.4222 35.2538 22.4779C35.4497 22.5447 35.654 22.5841 35.8607 22.5948C36.0747 22.6019 36.2883 22.571 36.4916 22.5036C36.7017 22.4372 36.8957 22.3281 37.0617 22.1833C37.2273 22.0419 37.3685 21.8742 37.4796 21.6869C37.5284 21.5994 37.5717 21.5091 37.6093 21.4163C37.6446 21.3282 37.6734 21.2561 37.6942 21.1761C37.7054 21.1408 37.715 21.1088 37.7214 21.0784L37.7343 20.9999C37.7343 20.9775 37.7343 20.9599 37.7343 20.9471C37.7343 20.9343 37.7343 20.9295 37.7343 20.9295H37.7182L37.6734 20.9118L37.6077 20.8766C37.5778 20.8665 37.5473 20.858 37.5165 20.851C37.4408 20.8299 37.3637 20.8138 37.2859 20.803C37.1941 20.7885 37.1016 20.7794 37.0089 20.7757C36.8019 20.7678 36.5947 20.7817 36.3907 20.8174C36.1828 20.8533 35.9797 20.9129 35.7854 20.9951C35.6041 21.0716 35.4308 21.166 35.2682 21.2769C35.1288 21.3803 35.001 21.4984 34.8871 21.6292C34.8663 21.6533 34.8471 21.6773 34.8278 21.7029L34.8727 21.602C34.9088 21.5297 34.9409 21.4553 34.9688 21.3794C35.0312 21.2193 35.0921 21.0496 35.0921 21.0496H35.1337L35.2058 21.0367L35.289 21.0127C35.434 20.9602 35.5713 20.8886 35.6974 20.7998C35.7722 20.7466 35.8429 20.6877 35.9087 20.6236C35.9739 20.5546 36.0323 20.4795 36.0833 20.3994C36.1922 20.234 36.2627 20.0463 36.2899 19.8502C36.3242 19.6539 36.3132 19.4523 36.2578 19.2609C36.209 19.0782 36.1241 18.9073 36.008 18.7581C35.9542 18.6917 35.8953 18.6296 35.8319 18.5723C35.782 18.5235 35.7284 18.4786 35.6717 18.4378C35.6461 18.4202 35.6237 18.4042 35.6013 18.3914C35.5834 18.3789 35.5647 18.3676 35.5452 18.3577L35.5068 18.3369H35.494L35.4812 18.3465L35.4444 18.3721L35.3915 18.4138C35.3723 18.4314 35.3499 18.449 35.3259 18.4682C35.3018 18.4874 35.2266 18.5563 35.1657 18.6091C35.1049 18.662 35.0568 18.7196 35.0056 18.7789C34.8997 18.8984 34.8068 19.0288 34.7286 19.168C34.659 19.3029 34.6104 19.4476 34.5844 19.5972C34.5666 19.7485 34.5704 19.9016 34.5957 20.0519C34.6123 20.1311 34.6337 20.2091 34.6597 20.2857C34.6839 20.363 34.7123 20.4389 34.7446 20.5131C34.8066 20.6485 34.8794 20.7786 34.9624 20.9022L35.0072 20.9711C35.0216 20.9919 35.0344 21.0095 35.044 21.0255C35.0536 21.0416 35.0632 21.0512 35.0696 21.0592C35.0761 21.0672 35.044 21.1168 35.0072 21.2049C34.9704 21.293 34.9239 21.4131 34.8631 21.5252C34.8022 21.6372 34.7462 21.7525 34.7029 21.8374C34.6821 21.8806 34.6629 21.9159 34.6501 21.9399L34.6277 21.9783C34.6334 21.9604 34.6382 21.9423 34.6421 21.9239C34.6751 21.7582 34.6783 21.5879 34.6517 21.4211C34.618 21.2384 34.5483 21.0642 34.4467 20.9086C34.3407 20.7424 34.2062 20.5961 34.0496 20.4763C33.8892 20.3544 33.7157 20.2508 33.5324 20.1672C33.4443 20.1272 33.3562 20.092 33.2746 20.0615C33.1929 20.0311 33.1144 20.0071 33.052 19.9879L32.9623 19.9607L32.8918 19.943L32.847 19.9318H32.831C32.8262 19.9384 32.8219 19.9454 32.8182 19.9526L32.8022 19.9863C32.8022 19.9991 32.791 20.0135 32.7862 20.0295C32.7813 20.0455 32.7685 20.1032 32.7557 20.148C32.7446 20.1974 32.7387 20.2479 32.7381 20.2985C32.7386 20.3588 32.745 20.4189 32.7573 20.4779C32.7664 20.5467 32.7808 20.6147 32.8006 20.6813C32.8532 20.84 32.923 20.9925 33.0087 21.136C33.104 21.3066 33.2155 21.4674 33.3418 21.6164C33.4712 21.7654 33.6126 21.9036 33.7646 22.0296C33.8955 22.1398 34.0347 22.2399 34.1809 22.329L34.2626 22.3755L34.325 22.4107L34.3491 22.4219L34.1889 22.6557L34.0288 22.8927L33.8254 23.1553C33.6909 23.3363 33.5404 23.5044 33.4299 23.6357L33.297 23.7958L33.2425 23.8519C33.2869 23.738 33.3144 23.6182 33.3242 23.4964C33.3418 23.3106 33.3244 23.1233 33.273 22.9439C33.2164 22.7523 33.1311 22.5703 33.0199 22.4043C32.9074 22.2379 32.7757 22.0852 32.6276 21.9495C32.5572 21.8823 32.4835 21.823 32.4162 21.7686C32.349 21.7141 32.2833 21.6693 32.2257 21.6292L32.1488 21.578L32.0864 21.5396L32.0463 21.5155L32.0319 21.5075H32.0239L32.0031 21.5268L31.9727 21.5588C31.9598 21.5728 31.948 21.5878 31.9375 21.6036C31.908 21.6414 31.8818 21.6816 31.859 21.7237C31.8328 21.7752 31.8109 21.8288 31.7933 21.8838C31.7443 22.0177 31.7199 22.1593 31.7213 22.3018C31.7218 22.4756 31.7433 22.6488 31.7853 22.8174C31.8335 23.0095 31.9022 23.1958 31.9903 23.3731C32.0779 23.5544 32.1825 23.727 32.3025 23.8887C32.4052 24.0253 32.5176 24.1542 32.6388 24.2746L32.7077 24.3387C32.7159 24.3476 32.7251 24.3556 32.7349 24.3627C32.7349 24.3627 32.4387 24.6541 32.12 24.9216C31.9599 25.0609 31.7997 25.1842 31.678 25.2819C31.5563 25.3795 31.4747 25.442 31.4747 25.442C31.5063 25.3765 31.5325 25.3084 31.5531 25.2386C31.6047 25.0582 31.6248 24.8702 31.6124 24.683C31.5989 24.4824 31.5541 24.2852 31.4795 24.0985C31.4049 23.9108 31.3087 23.7323 31.1928 23.5668C31.1384 23.4868 31.0807 23.4067 31.0327 23.3459C30.9847 23.285 30.9238 23.2194 30.8726 23.1681L30.8069 23.1009L30.7557 23.0512L30.7204 23.0192L30.7092 23.008H30.6996C30.6905 23.0123 30.6819 23.0176 30.674 23.024C30.6607 23.0324 30.6479 23.0415 30.6356 23.0512C30.6193 23.0636 30.6037 23.0769 30.5891 23.0913C30.5502 23.1249 30.5143 23.1619 30.4818 23.2017C30.4482 23.2466 30.4066 23.2946 30.3713 23.3507C30.2942 23.4774 30.24 23.6167 30.2112 23.7622C30.1705 23.9341 30.1548 24.111 30.1648 24.2874C30.1755 24.4861 30.2072 24.6831 30.2593 24.8751C30.3125 25.0695 30.3843 25.2583 30.4738 25.4388C30.5499 25.5925 30.6383 25.7397 30.738 25.8792L30.7781 25.9352L30.5779 26.0697C30.4578 26.1498 30.2897 26.2475 30.1264 26.3483C29.963 26.4492 29.7917 26.5405 29.6668 26.6142L29.457 26.7311C29.4714 26.7038 29.4874 26.6766 29.5002 26.6478C29.5803 26.4775 29.6317 26.2952 29.6524 26.1081C29.6734 25.9081 29.6626 25.7059 29.6203 25.5093C29.5797 25.311 29.5163 25.1181 29.4314 24.9344C29.3913 24.8463 29.3465 24.763 29.3033 24.6878C29.26 24.6125 29.2184 24.5437 29.18 24.4876L29.1271 24.4091L29.0855 24.3515L29.0567 24.3131L29.0455 24.3003H29.0358L29.007 24.3131L28.9638 24.3339L28.9093 24.3659C28.8653 24.3942 28.823 24.4252 28.7828 24.4588C28.7345 24.4994 28.6886 24.5427 28.6451 24.5885C28.5464 24.7021 28.4673 24.8315 28.4113 24.9712C28.3421 25.1346 28.2973 25.3072 28.2784 25.4836C28.2576 25.6811 28.2576 25.8802 28.2784 26.0777C28.2983 26.2788 28.3386 26.4773 28.3985 26.6702C28.4493 26.8346 28.512 26.9952 28.5859 27.1506L28.3809 27.2435L27.9197 27.4421C27.7596 27.5141 27.5834 27.5686 27.4569 27.6166L27.2456 27.6919C27.3483 27.5413 27.4252 27.3746 27.473 27.1987C27.5272 27.0055 27.5499 26.8049 27.5402 26.6046C27.5325 26.402 27.5013 26.2011 27.4473 26.0057C27.4217 25.9128 27.3913 25.8231 27.3609 25.7414C27.3304 25.6598 27.3016 25.5813 27.2728 25.5237L27.2328 25.4388L27.2007 25.3731C27.1911 25.3571 27.1831 25.3411 27.1783 25.3315V25.3171H27.1687C27.1583 25.3186 27.1481 25.3213 27.1383 25.3251L27.0918 25.3395C27.072 25.3454 27.0528 25.3529 27.0342 25.3619C26.9925 25.3779 26.9461 25.4052 26.8949 25.4308C26.839 25.4615 26.7855 25.4963 26.7347 25.5349C26.6223 25.6306 26.5251 25.7429 26.4465 25.8679C26.3549 26.0175 26.2848 26.1792 26.2383 26.3483C26.1829 26.5372 26.1486 26.7316 26.1358 26.928C26.1205 27.1298 26.1253 27.3325 26.1503 27.5333C26.1674 27.6857 26.1958 27.8367 26.2351 27.9849C26.2351 27.9849 26.1775 28.0025 26.075 28.0249L25.6538 28.1162C25.4793 28.1531 25.2727 28.1803 25.0533 28.2171C24.834 28.2539 24.597 28.2748 24.3616 28.286L24.0109 28.3036C23.8956 28.3036 23.7819 28.3036 23.673 28.3036C23.4536 28.3036 23.2519 28.2811 23.0773 28.2699C22.9028 28.2587 22.757 28.2235 22.6642 28.2123L22.504 28.1883L22.3711 28.9617L22.5649 28.9841C22.6882 28.9937 22.8643 29.0242 23.0741 29.0258C23.5854 29.0473 24.0976 29.0243 24.605 28.9569C25.105 28.8875 25.5998 28.7848 26.0862 28.6495C26.2864 28.6014 26.4465 28.5438 26.5666 28.5085L26.7459 28.4509C26.7935 28.6001 26.853 28.7452 26.9237 28.8849C27.017 29.0674 27.1344 29.2365 27.2728 29.3877C27.4154 29.5424 27.5819 29.6732 27.766 29.7752C27.9458 29.8767 28.1429 29.944 28.3473 29.9738C28.5396 30.0067 28.7362 30.0067 28.9286 29.9738C29.0135 29.9565 29.0974 29.9345 29.18 29.9081C29.2568 29.8825 29.3257 29.8553 29.3833 29.8296C29.4122 29.8152 29.4394 29.804 29.4618 29.7912L29.521 29.7592L29.5579 29.7352L29.5707 29.7272V29.7111C29.5645 29.6965 29.5592 29.6815 29.5547 29.6663C29.5547 29.6471 29.5387 29.6247 29.5274 29.599C29.5162 29.5734 29.505 29.5446 29.4906 29.5126C29.4618 29.4501 29.425 29.3797 29.3833 29.3044C29.3417 29.2291 29.2889 29.1443 29.2328 29.069C29.1131 28.9015 28.9744 28.7484 28.8197 28.6126C28.6648 28.4751 28.4932 28.3578 28.3088 28.2635C28.1372 28.1767 27.9554 28.1116 27.7676 28.0698L27.9838 27.9801L28.445 27.7623C28.6147 27.6839 28.7796 27.5926 28.9045 27.5285L29.1127 27.4212V27.4341C29.1896 27.5871 29.2802 27.7329 29.3833 27.8696C29.5077 28.0316 29.6519 28.1774 29.8125 28.3036C29.9788 28.4319 30.1641 28.5335 30.3617 28.6046C30.5545 28.6732 30.7577 28.7073 30.9622 28.7055C31.1555 28.7057 31.3474 28.6721 31.5291 28.6062C31.6096 28.5762 31.6882 28.5415 31.7645 28.5021C31.8294 28.4696 31.892 28.4326 31.9519 28.3916C31.9764 28.3766 31.9999 28.36 32.0223 28.342L32.0736 28.3004L32.1072 28.2699L32.1184 28.2603V28.2459L32.096 28.2043C32.0848 28.1867 32.072 28.1659 32.0591 28.1418C32.0463 28.1178 32.0271 28.0906 32.0079 28.0634C31.9695 28.0057 31.9214 27.9417 31.867 27.8744C31.809 27.8016 31.7464 27.7326 31.6796 27.6678C31.5348 27.5221 31.3736 27.3937 31.1992 27.2851C31.0245 27.1738 30.8361 27.0855 30.6388 27.0225C30.4542 26.9655 30.2632 26.9316 30.0703 26.9216H29.9582L30.1696 26.7887L30.6244 26.4813C30.7845 26.3692 30.9446 26.2443 31.0679 26.161C31.1912 26.0777 31.2665 26.0105 31.2665 26.0105L31.3113 26.0729C31.4131 26.2107 31.5267 26.3393 31.6508 26.4572C31.7982 26.5986 31.9641 26.7193 32.144 26.8159C32.3303 26.9153 32.5306 26.9855 32.7381 27.0241C32.9405 27.0594 33.1474 27.0594 33.3498 27.0241C33.5422 26.9919 33.7272 26.9251 33.8959 26.8271C33.9715 26.7825 34.0448 26.7338 34.1153 26.6814C34.1743 26.6369 34.2309 26.5893 34.285 26.5389C34.3074 26.5165 34.3266 26.4957 34.3442 26.4749C34.3619 26.454 34.3779 26.438 34.3891 26.4236L34.4179 26.3884L34.4275 26.3756L34.4163 26.3628C34.4075 26.3498 34.3979 26.3375 34.3875 26.3259L34.341 26.2699L34.277 26.201C34.2222 26.1446 34.1645 26.0912 34.104 26.0409C34.0341 25.9798 33.9609 25.9226 33.8847 25.8696C33.7167 25.7523 33.5356 25.655 33.345 25.5797C33.1529 25.5015 32.9517 25.4477 32.7461 25.4196C32.5542 25.3948 32.3599 25.3948 32.168 25.4196C32.0877 25.4306 32.008 25.4461 31.9294 25.466L32.1312 25.2899C32.2497 25.1826 32.4018 25.0321 32.5572 24.8847C32.7125 24.7374 32.8534 24.5773 32.9655 24.4636C33.0215 24.4059 33.0664 24.3563 33.0952 24.3211L33.1432 24.265C33.1545 24.2634 33.1641 24.2746 33.1753 24.2858Z" fill="url(#paint25_linear_24_11141)"/>
<path d="M24.1097 32.5098L24.8187 34.6889H27.1104L25.2556 36.0381L25.9645 38.2171L24.1097 36.8707L22.2549 38.2171L22.9638 36.0381L21.109 34.6889H23.4007L24.1097 32.5098Z" fill="url(#paint26_linear_24_11141)"/>
<path d="M16.0256 30.998L16.479 32.3912H17.9437L16.7593 33.2513L17.21 34.6445L16.0256 33.7844L14.8413 34.6445L15.2947 33.2513L14.1104 32.3912H15.5722L16.0256 30.998Z" fill="url(#paint27_linear_24_11141)"/>
<path d="M32.194 30.998L32.6447 32.3912H34.1093L32.925 33.2513L33.3756 34.6445L32.194 33.7844L31.0069 34.6445L31.4603 33.2513L30.276 32.3912H31.7406L32.194 30.998Z" fill="url(#paint28_linear_24_11141)"/>
<defs>
<linearGradient id="paint0_linear_24_11141" x1="24.11" y1="0" x2="24.11" y2="48.2168" gradientUnits="userSpaceOnUse">
<stop stop-color="white" stop-opacity="0.16"/>
<stop offset="1" stop-color="white" stop-opacity="0.02"/>
</linearGradient>
<linearGradient id="paint1_linear_24_11141" x1="33.9694" y1="15.8528" x2="14.2443" y2="15.8528" gradientUnits="userSpaceOnUse">
<stop stop-color="#7E5820"/>
<stop offset="0.55" stop-color="#FFD166"/>
<stop offset="1" stop-color="#3F2C10"/>
</linearGradient>
<linearGradient id="paint2_linear_24_11141" x1="24.9748" y1="15.9844" x2="24.6145" y2="15.9844" gradientUnits="userSpaceOnUse">
<stop stop-color="#7E5820"/>
<stop offset="0.55" stop-color="#FFD166"/>
<stop offset="1" stop-color="#3F2C10"/>
</linearGradient>
<linearGradient id="paint3_linear_24_11141" x1="25.7371" y1="18.6868" x2="24.3359" y2="18.6868" gradientUnits="userSpaceOnUse">
<stop stop-color="#7E5820"/>
<stop offset="0.55" stop-color="#FFD166"/>
<stop offset="1" stop-color="#3F2C10"/>
</linearGradient>
<linearGradient id="paint4_linear_24_11141" x1="25.4489" y1="16.638" x2="25.3111" y2="16.638" gradientUnits="userSpaceOnUse">
<stop stop-color="#7E5820"/>
<stop offset="0.55" stop-color="#FFD166"/>
<stop offset="1" stop-color="#3F2C10"/>
</linearGradient>
<linearGradient id="paint5_linear_24_11141" x1="29.6106" y1="13.3531" x2="24.8739" y2="13.3531" gradientUnits="userSpaceOnUse">
<stop stop-color="#7E5820"/>
<stop offset="0.55" stop-color="#FFD166"/>
<stop offset="1" stop-color="#3F2C10"/>
</linearGradient>
<linearGradient id="paint6_linear_24_11141" x1="27.8044" y1="17.0374" x2="27.6875" y2="17.0374" gradientUnits="userSpaceOnUse">
<stop stop-color="#7E5820"/>
<stop offset="0.55" stop-color="#FFD166"/>
<stop offset="1" stop-color="#3F2C10"/>
</linearGradient>
<linearGradient id="paint7_linear_24_11141" x1="28.4626" y1="18.6357" x2="25.8348" y2="18.6357" gradientUnits="userSpaceOnUse">
<stop stop-color="#7E5820"/>
<stop offset="0.55" stop-color="#FFD166"/>
<stop offset="1" stop-color="#3F2C10"/>
</linearGradient>
<linearGradient id="paint8_linear_24_11141" x1="26.259" y1="16.6997" x2="26.0397" y2="16.6997" gradientUnits="userSpaceOnUse">
<stop stop-color="#7E5820"/>
<stop offset="0.55" stop-color="#FFD166"/>
<stop offset="1" stop-color="#3F2C10"/>
</linearGradient>
<linearGradient id="paint9_linear_24_11141" x1="21.9115" y1="18.6972" x2="19.5047" y2="18.6972" gradientUnits="userSpaceOnUse">
<stop stop-color="#7E5820"/>
<stop offset="0.55" stop-color="#FFD166"/>
<stop offset="1" stop-color="#3F2C10"/>
</linearGradient>
<linearGradient id="paint10_linear_24_11141" x1="32.5251" y1="16.25" x2="28.5714" y2="16.25" gradientUnits="userSpaceOnUse">
<stop stop-color="#7E5820"/>
<stop offset="0.55" stop-color="#FFD166"/>
<stop offset="1" stop-color="#3F2C10"/>
</linearGradient>
<linearGradient id="paint11_linear_24_11141" x1="29.9263" y1="19.5491" x2="28.5219" y2="19.5491" gradientUnits="userSpaceOnUse">
<stop stop-color="#7E5820"/>
<stop offset="0.55" stop-color="#FFD166"/>
<stop offset="1" stop-color="#3F2C10"/>
</linearGradient>
<linearGradient id="paint12_linear_24_11141" x1="22.9028" y1="16.6379" x2="22.7667" y2="16.6379" gradientUnits="userSpaceOnUse">
<stop stop-color="#7E5820"/>
<stop offset="0.55" stop-color="#FFD166"/>
<stop offset="1" stop-color="#3F2C10"/>
</linearGradient>
<linearGradient id="paint13_linear_24_11141" x1="19.6425" y1="16.2497" x2="15.6888" y2="16.2497" gradientUnits="userSpaceOnUse">
<stop stop-color="#7E5820"/>
<stop offset="0.55" stop-color="#FFD166"/>
<stop offset="1" stop-color="#3F2C10"/>
</linearGradient>
<linearGradient id="paint14_linear_24_11141" x1="24.754" y1="12.0302" x2="24.5986" y2="12.0302" gradientUnits="userSpaceOnUse">
<stop stop-color="#7E5820"/>
<stop offset="0.55" stop-color="#FFD166"/>
<stop offset="1" stop-color="#3F2C10"/>
</linearGradient>
<linearGradient id="paint15_linear_24_11141" x1="19.4166" y1="19.6051" x2="18.2877" y2="19.6051" gradientUnits="userSpaceOnUse">
<stop stop-color="#7E5820"/>
<stop offset="0.55" stop-color="#FFD166"/>
<stop offset="1" stop-color="#3F2C10"/>
</linearGradient>
<linearGradient id="paint16_linear_24_11141" x1="17.6953" y1="17.2048" x2="14.246" y2="17.2048" gradientUnits="userSpaceOnUse">
<stop stop-color="#7E5820"/>
<stop offset="0.55" stop-color="#FFD166"/>
<stop offset="1" stop-color="#3F2C10"/>
</linearGradient>
<linearGradient id="paint17_linear_24_11141" x1="33.9695" y1="17.2042" x2="30.5186" y2="17.2042" gradientUnits="userSpaceOnUse">
<stop stop-color="#7E5820"/>
<stop offset="0.55" stop-color="#FFD166"/>
<stop offset="1" stop-color="#3F2C10"/>
</linearGradient>
<linearGradient id="paint18_linear_24_11141" x1="30.8309" y1="20.996" x2="17.3846" y2="20.996" gradientUnits="userSpaceOnUse">
<stop stop-color="#7E5820"/>
<stop offset="0.55" stop-color="#FFD166"/>
<stop offset="1" stop-color="#3F2C10"/>
</linearGradient>
<linearGradient id="paint19_linear_24_11141" x1="23.7355" y1="15.9825" x2="23.3752" y2="15.9825" gradientUnits="userSpaceOnUse">
<stop stop-color="#7E5820"/>
<stop offset="0.55" stop-color="#FFD166"/>
<stop offset="1" stop-color="#3F2C10"/>
</linearGradient>
<linearGradient id="paint20_linear_24_11141" x1="24.014" y1="18.6858" x2="21.9964" y2="18.6858" gradientUnits="userSpaceOnUse">
<stop stop-color="#7E5820"/>
<stop offset="0.55" stop-color="#FFD166"/>
<stop offset="1" stop-color="#3F2C10"/>
</linearGradient>
<linearGradient id="paint21_linear_24_11141" x1="22.1741" y1="16.6997" x2="21.9547" y2="16.6997" gradientUnits="userSpaceOnUse">
<stop stop-color="#7E5820"/>
<stop offset="0.55" stop-color="#FFD166"/>
<stop offset="1" stop-color="#3F2C10"/>
</linearGradient>
<linearGradient id="paint22_linear_24_11141" x1="23.4712" y1="13.3532" x2="18.6048" y2="13.3532" gradientUnits="userSpaceOnUse">
<stop stop-color="#7E5820"/>
<stop offset="0.55" stop-color="#FFD166"/>
<stop offset="1" stop-color="#3F2C10"/>
</linearGradient>
<linearGradient id="paint23_linear_24_11141" x1="20.528" y1="17.0378" x2="20.4095" y2="17.0378" gradientUnits="userSpaceOnUse">
<stop stop-color="#7E5820"/>
<stop offset="0.55" stop-color="#FFD166"/>
<stop offset="1" stop-color="#3F2C10"/>
</linearGradient>
<linearGradient id="paint24_linear_24_11141" x1="25.8412" y1="24.162" x2="10.4716" y2="24.162" gradientUnits="userSpaceOnUse">
<stop stop-color="#7E5820"/>
<stop offset="0.55" stop-color="#FFD166"/>
<stop offset="1" stop-color="#3F2C10"/>
</linearGradient>
<linearGradient id="paint25_linear_24_11141" x1="37.7439" y1="24.1625" x2="22.3727" y2="24.1625" gradientUnits="userSpaceOnUse">
<stop stop-color="#7E5820"/>
<stop offset="0.55" stop-color="#FFD166"/>
<stop offset="1" stop-color="#3F2C10"/>
</linearGradient>
<linearGradient id="paint26_linear_24_11141" x1="21.109" y1="35.3648" x2="27.1104" y2="35.3648" gradientUnits="userSpaceOnUse">
<stop stop-color="#7E5820"/>
<stop offset="0.55" stop-color="#FFD166"/>
<stop offset="1" stop-color="#3F2C10"/>
</linearGradient>
<linearGradient id="paint27_linear_24_11141" x1="14.1104" y1="32.8227" x2="17.9437" y2="32.8227" gradientUnits="userSpaceOnUse">
<stop stop-color="#7E5820"/>
<stop offset="0.55" stop-color="#FFD166"/>
<stop offset="1" stop-color="#3F2C10"/>
</linearGradient>
<linearGradient id="paint28_linear_24_11141" x1="30.276" y1="32.8227" x2="34.1093" y2="32.8227" gradientUnits="userSpaceOnUse">
<stop stop-color="#7E5820"/>
<stop offset="0.55" stop-color="#FFD166"/>
<stop offset="1" stop-color="#3F2C10"/>
</linearGradient>
</defs>
</svg>
