<svg width="24" height="24" viewBox="0 0 24 24" fill="none" xmlns="http://www.w3.org/2000/svg">
<path d="M7.00612 0C8.32612 0 9.60562 0.3705 10.7081 1.053C12.3548 0.877411 14.02 1.0715 15.5821 1.62111C17.1443 2.17073 18.5641 3.06201 19.7381 4.23C20.7676 5.25617 21.5846 6.47528 22.1423 7.81756C22.7001 9.15984 22.9877 10.5989 22.9886 12.0525C22.9886 12.5695 22.9526 13.0825 22.8806 13.5915C23.4691 14.636 23.779 15.8142 23.7806 17.013C23.781 17.9314 23.5997 18.8409 23.247 19.6889C22.8943 20.5369 22.3772 21.3067 21.7256 21.954C21.0744 22.6038 20.3015 23.1189 19.4511 23.4699C18.6008 23.821 17.6896 24.0011 16.7696 24C15.5096 24 14.2826 23.661 13.2146 23.034C11.5466 23.2335 9.85498 23.0528 8.2667 22.5054C6.67841 21.9581 5.23464 21.0583 4.04362 19.8735C3.01433 18.8475 2.19744 17.6286 1.63968 16.2866C1.08193 14.9446 0.794253 13.5058 0.793121 12.0525C0.793121 11.5075 0.833121 10.967 0.913121 10.431C0.15636 9.10203 -0.142028 7.56095 0.0639999 6.04556C0.270028 4.53017 0.969021 3.12469 2.05312 2.046C3.36824 0.736233 5.15004 0.00059726 7.00612 0ZM7.67662 10.515C7.94662 10.9785 8.32162 11.373 8.77012 11.6685C9.36388 12.0579 9.99562 12.3861 10.6556 12.648C11.3926 12.956 11.9651 13.2175 12.3731 13.4325C12.7166 13.6005 13.0286 13.8285 13.2956 14.1045C13.4981 14.3175 13.6106 14.601 13.6106 14.8965C13.6193 15.1042 13.5782 15.311 13.4908 15.4997C13.4034 15.6883 13.2722 15.8533 13.1081 15.981C12.6716 16.275 12.1481 16.4145 11.6231 16.377C11.0834 16.3839 10.5481 16.2787 10.0511 16.068C9.78178 15.9486 9.51569 15.8221 9.25312 15.6885C8.98144 15.5452 8.67975 15.4681 8.37262 15.4635C8.09763 15.4525 7.82884 15.547 7.62112 15.7275C7.52196 15.8218 7.44444 15.9364 7.39394 16.0636C7.34344 16.1908 7.32115 16.3274 7.32862 16.464C7.32275 16.7226 7.40062 16.9762 7.55062 17.187C7.73202 17.417 7.96681 17.5993 8.23462 17.718C9.27999 18.172 10.4136 18.3868 11.5526 18.3465C12.3819 18.3615 13.2071 18.2268 13.9886 17.949C14.6363 17.7188 15.2004 17.3004 15.6086 16.7475C16.0091 16.1625 16.2116 15.465 16.1876 14.757C16.2025 14.1785 16.0577 13.6071 15.7691 13.1055C15.4767 12.628 15.081 12.2221 14.6111 11.9175C14.0178 11.5324 13.3871 11.2083 12.7286 10.95C12.6585 10.9154 12.5858 10.8863 12.5111 10.863C11.9979 10.6551 11.4911 10.4315 10.9916 10.1925C10.6879 10.0509 10.4133 9.85408 10.1816 9.612C9.98683 9.40636 9.8793 9.13324 9.88162 8.85C9.87121 8.63397 9.91939 8.41914 10.021 8.22823C10.1227 8.03733 10.2741 7.87745 10.4591 7.7655C10.8972 7.50434 11.4015 7.37566 11.9111 7.395C12.3011 7.3905 12.6911 7.44 13.0691 7.539C13.4811 7.658 13.8821 7.8045 14.2721 7.9785C14.4296 8.052 14.6021 8.091 14.7761 8.0925C14.9031 8.09562 15.0293 8.07185 15.1464 8.02273C15.2635 7.97361 15.3689 7.90026 15.4556 7.8075C15.6392 7.60421 15.7361 7.33722 15.7256 7.0635C15.7297 6.8025 15.6391 6.54886 15.4706 6.3495C15.2388 6.10865 14.9529 5.9266 14.6366 5.8185C14.2926 5.69216 13.9368 5.60021 13.5746 5.544C13.0679 5.46134 12.555 5.4222 12.0416 5.427C11.257 5.4211 10.4773 5.55206 9.73762 5.814C9.05672 6.04289 8.44894 6.44876 7.97662 6.99C7.52054 7.52783 7.28004 8.21565 7.30162 8.9205C7.28662 9.4755 7.41562 10.0245 7.67662 10.515Z" fill="white"/>
</svg>
