<svg width="19" height="19" viewBox="0 0 19 19" fill="none" xmlns="http://www.w3.org/2000/svg">
<g clip-path="url(#clip0_5_1492)">
<path d="M9.17779 0.747314C6.81535 0.747314 4.54758 1.68658 2.87842 3.35686C1.20755 5.0278 0.268659 7.29391 0.268181 9.65693C0.268181 12.019 1.20787 14.2867 2.87842 15.957C4.54758 17.6273 6.81535 18.5665 9.17779 18.5665C11.5402 18.5665 13.808 17.6273 15.4772 15.957C17.1477 14.2867 18.0874 12.019 18.0874 9.65693C18.0874 7.29491 17.1477 5.02713 15.4772 3.35686C13.808 1.68658 11.5402 0.747314 9.17779 0.747314Z" fill="url(#paint0_linear_5_1492)"/>
<path d="M4.30117 9.56282C6.89888 8.4313 8.63068 7.6853 9.49659 7.32484C11.9718 6.29564 12.4855 6.11689 12.821 6.11083C12.8948 6.10965 13.059 6.12788 13.1662 6.21454C13.2553 6.28763 13.2804 6.38647 13.2929 6.45587C13.3041 6.5252 13.3194 6.6832 13.3068 6.80655C13.1732 8.21538 12.5927 11.6342 12.2975 13.2121C12.1736 13.8798 11.9272 14.1037 11.6892 14.1255C11.1713 14.1731 10.7787 13.7836 10.2776 13.4552C9.4938 12.9411 9.05111 12.6212 8.28961 12.1196C7.40979 11.5399 7.98056 11.2213 8.48173 10.7006C8.61259 10.5643 10.8929 8.49074 10.936 8.30267C10.9416 8.27914 10.9472 8.19143 10.8943 8.14522C10.8428 8.09886 10.7662 8.11473 10.7105 8.12726C10.6312 8.14508 9.37965 8.97311 6.95178 10.6112C6.59679 10.8554 6.2752 10.9744 5.98564 10.9682C5.66824 10.9613 5.0557 10.7883 4.60048 10.6405C4.04362 10.4591 3.59954 10.3632 3.63852 10.0551C3.658 9.8947 3.87935 9.73057 4.30117 9.56282Z" fill="white"/>
</g>
<defs>
<linearGradient id="paint0_linear_5_1492" x1="891.23" y1="0.747314" x2="891.23" y2="1782.67" gradientUnits="userSpaceOnUse">
<stop stop-color="#2AABEE"/>
<stop offset="1" stop-color="#229ED9"/>
</linearGradient>
<clipPath id="clip0_5_1492">
<rect width="17.8192" height="17.8192" fill="white" transform="translate(0.268181 0.747314)"/>
</clipPath>
</defs>
</svg>
