<svg width="13" height="14" viewBox="0 0 13 14" fill="none" xmlns="http://www.w3.org/2000/svg">
<path d="M12.3566 2.66423C12.3566 2.08959 12.1284 1.53849 11.722 1.13216C11.3157 0.725832 10.7646 0.497559 10.19 0.497559H2.5233C1.94866 0.497559 1.39756 0.725832 0.99123 1.13216C0.584901 1.53849 0.356628 2.08959 0.356628 2.66423V10.3309C0.356628 10.9055 0.584901 11.4566 0.99123 11.863C1.39756 12.2693 1.94866 12.4976 2.5233 12.4976H5.18996V11.4976H2.5233C2.21388 11.4976 1.91713 11.3746 1.69834 11.1558C1.47954 10.9371 1.35663 10.6403 1.35663 10.3309V4.16423H11.3566V10.3309C11.3566 10.6403 11.2337 10.9371 11.0149 11.1558C10.7961 11.3746 10.4994 11.4976 10.19 11.4976H7.5233V12.4976H10.19C10.7646 12.4976 11.3157 12.2693 11.722 11.863C12.1284 11.4566 12.3566 10.9055 12.3566 10.3309V2.66423ZM2.5233 1.49756H10.19C10.834 1.49756 11.3566 2.02023 11.3566 2.66423V3.16423H1.35663V2.66423C1.35663 2.02023 1.8793 1.49756 2.5233 1.49756ZM7.18996 6.33089C7.18996 6.55191 7.10216 6.76387 6.94588 6.92015C6.7896 7.07643 6.57764 7.16423 6.35663 7.16423C6.13561 7.16423 5.92365 7.07643 5.76737 6.92015C5.61109 6.76387 5.5233 6.55191 5.5233 6.33089C5.5233 6.10988 5.61109 5.89792 5.76737 5.74164C5.92365 5.58536 6.13561 5.49756 6.35663 5.49756C6.57764 5.49756 6.7896 5.58536 6.94588 5.74164C7.10216 5.89792 7.18996 6.10988 7.18996 6.33089ZM7.52463 10.7042C7.62449 10.7861 7.75217 10.8262 7.88092 10.8161C8.00968 10.806 8.12952 10.7464 8.21535 10.6499C8.30117 10.5534 8.34632 10.4274 8.34134 10.2983C8.33636 10.1693 8.28164 10.0472 8.18863 9.95756L6.68863 8.62423C6.59713 8.54297 6.479 8.49809 6.35663 8.49809C6.23426 8.49809 6.11613 8.54297 6.02463 8.62423L4.52463 9.95756C4.43162 10.0472 4.37689 10.1693 4.37191 10.2983C4.36693 10.4274 4.41208 10.5534 4.49791 10.6499C4.58374 10.7464 4.70358 10.806 4.83233 10.8161C4.96109 10.8262 5.08877 10.7861 5.18863 10.7042L5.85663 10.1109V12.6642C5.85663 12.7299 5.86956 12.7949 5.89469 12.8556C5.91982 12.9162 5.95665 12.9713 6.00308 13.0178C6.0495 13.0642 6.10462 13.101 6.16529 13.1262C6.22595 13.1513 6.29097 13.1642 6.35663 13.1642C6.42229 13.1642 6.48731 13.1513 6.54797 13.1262C6.60863 13.101 6.66375 13.0642 6.71018 13.0178C6.75661 12.9713 6.79344 12.9162 6.81857 12.8556C6.8437 12.7949 6.85663 12.7299 6.85663 12.6642V10.1109L7.52463 10.7042Z" fill="white"/>
</svg>
