<svg width="14" height="15" viewBox="0 0 14 15" fill="none" xmlns="http://www.w3.org/2000/svg">
<path d="M9.35661 11.4976H4.35661C4.0914 11.4976 3.83704 11.6029 3.64951 11.7905C3.46197 11.978 3.35661 12.2324 3.35661 12.4976V13.4976C3.35661 13.7628 3.46197 14.0171 3.64951 14.2047C3.83704 14.3922 4.0914 14.4976 4.35661 14.4976H9.35661C9.62183 14.4976 9.87618 14.3922 10.0637 14.2047C10.2513 14.0171 10.3566 13.7628 10.3566 13.4976V12.4976C10.3566 12.2324 10.2513 11.978 10.0637 11.7905C9.87618 11.6029 9.62183 11.4976 9.35661 11.4976ZM9.35661 13.4976H4.35661V12.4976H9.35661V13.4976ZM13.2101 6.64407L7.21011 0.644074C7.11635 0.550338 6.9892 0.497681 6.85661 0.497681C6.72403 0.497681 6.59688 0.550338 6.50311 0.644074L0.503113 6.64407C0.433209 6.714 0.385605 6.80308 0.366322 6.90006C0.347038 6.99703 0.356939 7.09755 0.394774 7.1889C0.432609 7.28025 0.496679 7.35833 0.578884 7.41327C0.661089 7.46822 0.757738 7.49755 0.856613 7.49757H3.35661V9.49757C3.35661 9.76279 3.46197 10.0171 3.64951 10.2047C3.83704 10.3922 4.0914 10.4976 4.35661 10.4976H9.35661C9.62171 10.4972 9.87583 10.3917 10.0633 10.2042C10.2507 10.0168 10.3562 9.76267 10.3566 9.49757V7.49757H12.8566C12.9555 7.49755 13.0521 7.46822 13.1343 7.41327C13.2165 7.35833 13.2806 7.28025 13.3185 7.1889C13.3563 7.09755 13.3662 6.99703 13.3469 6.90006C13.3276 6.80308 13.28 6.714 13.2101 6.64407ZM9.35661 6.49757V9.49757H4.35661V6.49757H2.06361L6.85661 1.70457L11.6496 6.49757H9.35661Z" fill="#F3F3F3"/>
</svg>
