<svg width="24" height="25" viewBox="0 0 24 25" fill="none" xmlns="http://www.w3.org/2000/svg">
<g clip-path="url(#clip0_29_17962)">
<path d="M0.507923 12.1358C0.507365 14.1523 1.03425 16.1212 2.03611 17.8566L0.412109 23.7861L6.4802 22.1951C8.15856 23.1087 10.039 23.5875 11.95 23.5876H11.955C18.2634 23.5876 23.3985 18.4543 23.4012 12.1448C23.4024 9.08743 22.2129 6.21246 20.0516 4.04948C17.8906 1.88669 15.0167 0.694968 11.9545 0.693573C5.64541 0.693573 0.510621 5.8266 0.508016 12.1358" fill="url(#paint0_linear_29_17962)"/>
<path d="M0.0995349 12.1321C0.0988837 14.2211 0.644651 16.2604 1.68223 18.058L0 24.2001L6.28567 22.552C8.01758 23.4963 9.96754 23.9941 11.9517 23.9949H11.9568C18.4915 23.9949 23.8112 18.6769 23.814 12.1416C23.8151 8.9743 22.5827 5.99598 20.3442 3.75551C18.1054 1.51533 15.1287 0.280721 11.9568 0.279419C5.42102 0.279419 0.10214 5.59663 0.0995349 12.1321ZM3.84288 17.7484L3.60819 17.3759C2.62158 15.8071 2.10084 13.9943 2.10158 12.1328C2.10363 6.70072 6.52447 2.28128 11.9606 2.28128C14.5931 2.2824 17.0672 3.30863 18.928 5.17058C20.7887 7.03272 21.8127 9.50807 21.812 12.1408C21.8096 17.5729 17.3887 21.9929 11.9568 21.9929H11.9529C10.1843 21.992 8.44967 21.517 6.93693 20.6194L6.57693 20.4059L2.84688 21.3839L3.84288 17.7484Z" fill="url(#paint1_linear_29_17962)"/>
<path d="M8.99304 7.17691C8.77108 6.68361 8.5375 6.67366 8.32643 6.665C8.15359 6.65756 7.95601 6.65812 7.75862 6.65812C7.56104 6.65812 7.24001 6.73245 6.96866 7.02873C6.69704 7.32528 5.93164 8.04193 5.93164 9.49952C5.93164 10.9571 6.99332 12.3658 7.14132 12.5637C7.2895 12.7612 9.1909 15.8481 12.2022 17.0356C14.7049 18.0225 15.2142 17.8262 15.7574 17.7767C16.3007 17.7274 17.5103 17.0603 17.7571 16.3684C18.0041 15.6767 18.0041 15.0838 17.9301 14.9599C17.856 14.8364 17.6584 14.7623 17.3622 14.6142C17.0659 14.4661 15.6092 13.7493 15.3377 13.6504C15.0661 13.5516 14.8686 13.5023 14.671 13.799C14.4734 14.0951 13.9061 14.7623 13.7331 14.9599C13.5604 15.1579 13.3875 15.1826 13.0913 15.0344C12.7948 14.8857 11.8407 14.5733 10.7087 13.5641C9.82792 12.7788 9.23331 11.809 9.06048 11.5124C8.88764 11.2162 9.04197 11.0556 9.19052 10.908C9.32364 10.7752 9.4869 10.562 9.63518 10.3891C9.7829 10.2161 9.8322 10.0926 9.93099 9.89505C10.0299 9.69728 9.98038 9.52426 9.90643 9.37607C9.8322 9.22789 9.25648 7.76268 8.99304 7.17691Z" fill="white"/>
</g>
<defs>
<linearGradient id="paint0_linear_29_17962" x1="1149.87" y1="2309.95" x2="1149.87" y2="0.693573" gradientUnits="userSpaceOnUse">
<stop stop-color="#1FAF38"/>
<stop offset="1" stop-color="#60D669"/>
</linearGradient>
<linearGradient id="paint1_linear_29_17962" x1="1190.7" y1="2392.34" x2="1190.7" y2="0.279419" gradientUnits="userSpaceOnUse">
<stop stop-color="#F9F9F9"/>
<stop offset="1" stop-color="white"/>
</linearGradient>
<clipPath id="clip0_29_17962">
<rect width="23.814" height="24" fill="white" transform="translate(0 0.279419)"/>
</clipPath>
</defs>
</svg>
